<svg width="291" height="210" viewBox="0 0 291 210" fill="none" xmlns="http://www.w3.org/2000/svg">
<path d="M79.9645 15.3688C95.6659 2.66914 109.982 0.456327 115.177 0.937373C155.874 -7.14422 192.241 54.3335 192.818 71.0739C193.395 87.8143 171.171 82.3304 169.439 87.5257C167.707 92.721 225.144 129.377 225.722 138.036C226.299 146.694 217.351 155.642 218.506 174.114C219.66 192.586 232.36 197.204 233.514 200.668C234.669 204.131 46.7723 220.294 48.7927 197.204C50.8131 174.114 65.8218 190.277 52.8335 174.114C39.8453 157.951 62.9355 139.767 52.8335 124.181C42.7316 108.596 67.8422 99.6481 65.8218 87.5257C63.8014 75.4034 51.1018 82.0418 43.8861 67.3218C36.6704 52.6018 60.3378 31.2433 79.9645 15.3688Z" fill="black"/>
<path fill-rule="evenodd" clip-rule="evenodd" d="M102.387 43.8793C107.829 39.0878 112.267 33.836 114.674 30.4851L116.549 31.8322C114.049 35.3122 109.496 40.6962 103.913 45.6123C98.3475 50.5122 91.6467 55.0471 84.852 56.6706L84.3154 54.4248C90.5667 52.9311 96.9264 48.6869 102.387 43.8793Z" fill="white"/>
<path fill-rule="evenodd" clip-rule="evenodd" d="M134.843 35.6435C123.484 29.6647 121.506 20.9337 122.118 16.9832L124.4 17.3367C123.953 20.217 125.343 28.034 135.919 33.6002L134.843 35.6435Z" fill="white"/>
<path fill-rule="evenodd" clip-rule="evenodd" d="M137.29 45.4352C134.041 37.7817 133.817 29.7942 134.614 24.7339L136.895 25.0934C136.154 29.7984 136.362 37.339 139.415 44.533C142.45 51.6837 148.296 58.506 158.909 61.9133L158.204 64.1118C146.881 60.4766 140.557 53.132 137.29 45.4352Z" fill="white"/>
<path fill-rule="evenodd" clip-rule="evenodd" d="M156.525 18.526C151.765 18.0864 146.708 16.1064 143.505 14.4307L144.575 12.3847C147.625 13.9801 152.382 15.8245 156.738 16.2267C158.912 16.4275 160.898 16.2602 162.501 15.6006C164.066 14.9569 165.314 13.8289 166.058 11.9688L168.202 12.8263C167.214 15.2955 165.492 16.8674 163.38 17.736C161.306 18.5888 158.909 18.7461 156.525 18.526Z" fill="white"/>
<path fill-rule="evenodd" clip-rule="evenodd" d="M75.4 13.3661C81.8847 12.7302 89.3201 12.2312 94.189 11.9661L94.3146 14.2717C89.4663 14.5357 82.0663 15.0325 75.6253 15.6641C72.4025 15.9801 69.4372 16.3283 67.1573 16.6954C66.0153 16.8792 65.0664 17.0645 64.3517 17.2477C63.9941 17.3394 63.713 17.426 63.5044 17.5051C63.3056 17.5805 63.2253 17.6297 63.213 17.6373C63.2113 17.6383 63.2108 17.6386 63.2115 17.638L61.7939 15.8154C62.0596 15.6088 62.3861 15.4598 62.6856 15.3462C63.0024 15.226 63.3726 15.115 63.7784 15.011C64.5906 14.8028 65.6175 14.6045 66.7903 14.4157C69.1398 14.0374 72.1599 13.6838 75.4 13.3661Z" fill="white"/>
<path fill-rule="evenodd" clip-rule="evenodd" d="M49.1364 50.6971C52.2081 50.0611 55.0273 48.6313 56.6581 47.5215L57.9572 49.4304C56.1245 50.6777 53.0269 52.2496 49.6045 52.9582C46.1848 53.6662 42.2667 53.5423 39.0146 51.1357L40.3882 49.2797C42.9086 51.1448 46.062 51.3336 49.1364 50.6971Z" fill="white"/>
<path fill-rule="evenodd" clip-rule="evenodd" d="M74.1139 97.4853C76.7516 90.6306 81.315 84.0395 84.7143 80.0532L86.4713 81.5515C83.184 85.4063 78.7855 91.7746 76.2688 98.3146C73.7248 104.926 73.262 111.26 77.0741 115.535L75.3506 117.072C70.6193 111.765 71.5035 104.269 74.1139 97.4853Z" fill="white"/>
<path fill-rule="evenodd" clip-rule="evenodd" d="M51.5243 123.989C54.1454 121.334 56.0204 117.373 56.9278 114.511L59.1288 115.209C58.1601 118.264 56.1386 122.601 53.1675 125.611C51.6734 127.124 49.8844 128.357 47.8126 128.868C45.7121 129.386 43.4281 129.134 41.0332 127.857L42.1198 125.82C44.0543 126.851 45.757 126.997 47.2598 126.626C48.7914 126.248 50.2224 125.307 51.5243 123.989Z" fill="white"/>
<path fill-rule="evenodd" clip-rule="evenodd" d="M55.1478 172.136C58.0729 168.446 60.5929 163.48 62.0128 160.025L64.1485 160.902C62.6822 164.47 60.0646 169.65 56.9573 173.57C55.4083 175.524 53.6768 177.244 51.8384 178.265C49.9686 179.304 47.8888 179.665 45.8389 178.677L46.8417 176.597C48.0244 177.167 49.2927 177.038 50.7168 176.247C52.1724 175.438 53.6808 173.987 55.1478 172.136Z" fill="white"/>
<path fill-rule="evenodd" clip-rule="evenodd" d="M65.29 194.61L74.0932 181.189L76.0239 182.455L67.2208 195.876L65.29 194.61Z" fill="white"/>
<path fill-rule="evenodd" clip-rule="evenodd" d="M154.193 112.669C150.369 107.84 147.786 102.77 146.567 99.5373L148.728 98.7229C149.867 101.744 152.335 106.603 156.003 111.236C159.675 115.874 164.48 120.195 170.265 122.289L169.479 124.46C163.142 122.167 158.013 117.493 154.193 112.669Z" fill="white"/>
<path fill-rule="evenodd" clip-rule="evenodd" d="M182.033 93.8558L164.716 81.1562L166.081 79.2942L183.399 91.9938L182.033 93.8558Z" fill="white"/>
<path fill-rule="evenodd" clip-rule="evenodd" d="M106.236 183.927L93.4233 134.488L95.6585 133.909L109.415 186.989L107.555 186.554C105.017 185.961 102.002 185.59 99.0699 185.73C96.1265 185.871 93.3583 186.523 91.2332 187.891C89.1512 189.231 87.6207 191.296 87.1503 194.46C86.672 197.677 87.282 202.099 89.6949 208.089L87.5532 208.952C85.0594 202.761 84.3044 197.9 84.8664 194.121C85.4362 190.288 87.3512 187.643 89.9835 185.949C92.5727 184.283 95.7875 183.576 98.9594 183.424C101.446 183.305 103.963 183.524 106.236 183.927Z" fill="white"/>
<path fill-rule="evenodd" clip-rule="evenodd" d="M131.652 209.299L147.671 130.937L149.933 131.399L133.915 209.761L131.652 209.299Z" fill="white"/>
<path fill-rule="evenodd" clip-rule="evenodd" d="M163.037 182.957L172.995 159.578L175.119 160.483L165.161 183.862L163.037 182.957Z" fill="white"/>
<path fill-rule="evenodd" clip-rule="evenodd" d="M183.768 206.954C177.906 185.872 162.269 182.004 155.793 184.076L155.089 181.877C163.044 179.332 179.848 184.237 185.993 206.335L183.768 206.954Z" fill="white"/>
<path fill-rule="evenodd" clip-rule="evenodd" d="M100.678 207.4C100.898 208.283 101.048 208.827 101.105 208.981L98.9433 209.791C98.8278 209.483 98.6439 208.786 98.4377 207.959C98.2225 207.095 97.9613 205.999 97.6878 204.828C97.1405 202.485 96.5407 199.826 96.1553 198.091L98.4093 197.59C98.7936 199.32 99.3915 201.971 99.9363 204.303C100.209 205.47 100.467 206.553 100.678 207.4Z" fill="white"/>
<path fill-rule="evenodd" clip-rule="evenodd" d="M107.812 193.396L109.399 209.126L107.102 209.358L105.515 193.627L107.812 193.396Z" fill="white"/>
<path fill-rule="evenodd" clip-rule="evenodd" d="M120.074 199.291L118.775 209.105L116.486 208.802L117.785 198.989L120.074 199.291Z" fill="white"/>
<path fill-rule="evenodd" clip-rule="evenodd" d="M168.104 195.675L171.135 207.365L168.9 207.944L165.869 196.255L168.104 195.675Z" fill="white"/>
<path fill-rule="evenodd" clip-rule="evenodd" d="M162.89 194.873L158.416 208.872L156.217 208.169L160.691 194.17L162.89 194.873Z" fill="white"/>
<path fill-rule="evenodd" clip-rule="evenodd" d="M149.362 198.182L147.486 209.006L145.211 208.611L147.087 197.788L149.362 198.182Z" fill="white"/>
<path fill-rule="evenodd" clip-rule="evenodd" d="M228.611 137.913C213.832 141.758 205.89 133.999 203.748 129.341L205.846 128.376C207.553 132.088 214.407 139.223 228.029 135.679L228.611 137.913Z" fill="white"/>
<path fill-rule="evenodd" clip-rule="evenodd" d="M207.365 176.545C205.155 173.721 204.773 170.355 205.096 168.094L207.382 168.42C207.128 170.199 207.44 172.894 209.183 175.122C210.891 177.303 214.122 179.225 220.093 179.225V181.534C213.596 181.534 209.612 179.415 207.365 176.545Z" fill="white"/>
<path d="M110.982 54.1644L119.365 42.0631C120.194 40.8665 121.91 40.726 122.922 41.7718L133.692 52.8963C135.072 54.3211 134.132 56.7074 132.151 56.8084L112.998 57.7852C111.084 57.8828 109.891 55.7401 110.982 54.1644Z" fill="white"/>
<path fill-rule="evenodd" clip-rule="evenodd" d="M110.321 122.382L112.772 117.494L114.845 118.534L112.393 123.422L110.321 122.382Z" fill="white"/>
<path fill-rule="evenodd" clip-rule="evenodd" d="M87.413 163.083L84.7249 158.322L86.7441 157.182L89.4323 161.944L87.413 163.083Z" fill="white"/>
<path fill-rule="evenodd" clip-rule="evenodd" d="M134.248 168.83L131.56 164.068L133.579 162.928L136.267 167.69L134.248 168.83Z" fill="white"/>
<path fill-rule="evenodd" clip-rule="evenodd" d="M190.449 140.459L188.45 135.369L190.608 134.522L192.607 139.612L190.449 140.459Z" fill="white"/>
<path fill-rule="evenodd" clip-rule="evenodd" d="M205.727 194.014L202.722 186.361L205.364 185.324L208.369 192.976L205.727 194.014Z" fill="white"/>
<path d="M25.9529 115.774C21.7941 127.018 10.9812 148.675 1 145.348" stroke="black" stroke-width="4"/>
<path d="M252.723 179.75C261.784 187.602 281.69 201.374 288.835 193.651" stroke="black" stroke-width="4"/>
<path d="M21.1352 183.294L10.1698 179.037" stroke="black" stroke-width="4"/>
<path d="M258.348 158.306L247.098 161.744" stroke="black" stroke-width="4"/>
</svg>
