<svg width="24" height="24" viewBox="0 0 24 24" fill="none" xmlns="http://www.w3.org/2000/svg">
<path d="M11.4833 17.5819C11.8011 17.3901 12.1989 17.3901 12.5167 17.5819L16.151 19.7754C16.9083 20.2325 17.8425 19.5535 17.6416 18.692L16.6771 14.5578C16.5928 14.1963 16.7156 13.8178 16.9962 13.5748L20.2121 10.7889C20.8801 10.2101 20.5239 9.11271 19.6432 9.03677L15.4095 8.67169C15.0406 8.63989 14.7195 8.40691 14.5749 8.06612L12.9205 4.16859C12.5757 3.35623 11.4243 3.35623 11.0795 4.16859L9.42511 8.06612C9.28045 8.40691 8.95936 8.63989 8.59051 8.67169L4.35383 9.03703C3.4736 9.11293 3.11704 10.2095 3.78428 10.7886L6.99532 13.5754C7.27505 13.8182 7.39768 14.1957 7.31401 14.5565L6.35429 18.6957C6.15464 19.5567 7.08842 20.2344 7.84518 19.7777L11.4833 17.5819Z" fill="#2094FF"/>
</svg>
