<svg width="48" height="70" viewBox="0 0 48 70" fill="none" xmlns="http://www.w3.org/2000/svg">
<path fill-rule="evenodd" clip-rule="evenodd" d="M44.5767 35.1305C46.75 31.6424 48 27.5564 48 23.1884C48 10.3818 37.2548 0 24 0C10.7452 0 0 10.3818 0 23.1884C0 27.5566 1.2501 31.6426 3.42349 35.1308L24 69.5652L44.5767 35.1305Z" fill="#2094FF"/>
<ellipse cx="24.0002" cy="22.261" rx="17.76" ry="17.1594" fill="white"/>
<path fill-rule="evenodd" clip-rule="evenodd" d="M31.1583 14.6525C31.2253 14.4252 31.261 14.1866 31.261 13.9406C31.261 12.3888 29.8407 11.1309 28.0887 11.1309C26.9776 11.1309 25.9999 11.6368 25.4333 12.4028C24.9402 12.1232 24.3539 11.961 23.7249 11.961C23.036 11.961 22.3983 12.1555 21.8782 12.486C21.358 12.1555 20.7203 11.961 20.0314 11.961C18.7547 11.961 17.6542 12.629 17.151 13.5919C15.7463 13.881 14.6996 14.9967 14.6996 16.3288C14.6996 16.4783 14.7128 16.625 14.7381 16.7681C13.8553 17.267 13.2698 18.1423 13.2698 19.1386C13.2698 19.8989 13.6107 20.5886 14.1645 21.0944C14.0546 21.3309 13.9822 21.5837 13.9537 21.8474C13.0681 22.33 12.4805 23.1787 12.4805 24.1451C12.4805 25.1231 13.0823 25.9806 13.9858 26.46C14.0997 27.0295 14.42 27.5386 14.8784 27.9285L14.8783 27.951C14.8783 29.2444 15.9309 30.327 17.3416 30.6032C17.409 30.7465 17.4903 30.8838 17.584 31.0138C17.7804 32.3546 19.1146 33.3917 20.7314 33.3917C21.7682 33.3917 22.6888 32.9652 23.2677 32.3056C23.4567 32.3024 23.6416 32.285 23.8211 32.2546C24.3168 32.5296 24.9076 32.6893 25.5419 32.6893C26.4377 32.6893 27.2468 32.3709 27.8237 31.8588C27.9028 31.8578 27.9813 31.8543 28.0589 31.8484C28.1521 31.8555 28.2465 31.8591 28.3419 31.8591C30.0939 31.8591 31.5142 30.6412 31.5142 29.1388C31.5142 29.0638 31.5106 28.9896 31.5037 28.9162C31.76 28.6333 31.9527 28.3057 32.0632 27.9495C32.0985 27.9505 32.1339 27.951 32.1695 27.951C33.9215 27.951 35.3417 26.7331 35.3417 25.2307C35.3417 24.3591 34.8638 23.5832 34.1204 23.0854L34.1204 23.074L34.1205 23.0595C34.1205 22.9787 34.1164 22.8988 34.1083 22.8198C34.9598 22.3319 35.5205 21.5002 35.5205 20.5562C35.5205 19.4623 34.7675 18.5192 33.6818 18.0872C33.7156 17.9229 33.7333 17.7535 33.7333 17.5805C33.7333 16.2637 32.7105 15.1584 31.3301 14.8539C31.2762 14.7845 31.2188 14.7173 31.1583 14.6525Z" fill="black"/>
<path fill-rule="evenodd" clip-rule="evenodd" d="M16.5004 21.0348L16.9204 20.4078L17.2305 20.5605L16.8104 21.1876L16.5004 21.0348Z" fill="white"/>
<path fill-rule="evenodd" clip-rule="evenodd" d="M15.9685 27.3937L15.9443 26.6709L16.3018 26.6621L16.3259 27.3849L15.9685 27.3937Z" fill="white"/>
<path fill-rule="evenodd" clip-rule="evenodd" d="M31.5246 26.1536L32.064 25.5978L32.3389 25.7939L31.7994 26.3497L31.5246 26.1536Z" fill="white"/>
<path fill-rule="evenodd" clip-rule="evenodd" d="M29.1695 18.8907L29.1092 18.1694L29.4658 18.1475L29.5262 18.8687L29.1695 18.8907Z" fill="white"/>
<path fill-rule="evenodd" clip-rule="evenodd" d="M27.8854 15.0753L27.825 14.354L28.1816 14.332L28.242 15.0533L27.8854 15.0753Z" fill="white"/>
<path fill-rule="evenodd" clip-rule="evenodd" d="M30.35 30.1106C29.6725 29.3284 29.5028 28.3442 29.5505 27.6768L29.9167 27.696C29.8726 28.3133 30.0332 29.2171 30.6445 29.923C31.246 30.6174 32.3035 31.1436 34.1188 30.991L34.1546 31.3041C32.2272 31.4662 31.0373 30.9042 30.35 30.1106Z" fill="white"/>
<path fill-rule="evenodd" clip-rule="evenodd" d="M15.6167 14.051C16.4773 14.5836 17.5209 14.9505 18.2173 15.1238L18.115 15.426C17.3895 15.2454 16.305 14.865 15.402 14.3061C14.5054 13.7512 13.7431 12.9914 13.7631 12.0469L14.1299 12.0526C14.1133 12.8387 14.7498 13.5145 15.6167 14.051Z" fill="white"/>
<path fill-rule="evenodd" clip-rule="evenodd" d="M20.9616 24.3567C20.178 24.2442 19.2423 23.8631 18.624 23.5516L18.8099 23.2803C19.4146 23.585 20.3045 23.9433 21.0222 24.0464C21.3849 24.0985 21.6665 24.0798 21.8465 23.9903C22.0063 23.9109 22.1276 23.7535 22.1112 23.4226L22.4778 23.4092C22.498 23.8177 22.3434 24.1071 22.0304 24.2626C21.7376 24.4081 21.3496 24.4125 20.9616 24.3567Z" fill="white"/>
</svg>
