<svg width="48" height="69" viewBox="0 0 48 69" fill="none" xmlns="http://www.w3.org/2000/svg">
<ellipse cx="24.7063" cy="24.162" rx="12.7542" ry="13.9677" fill="black"/>
<path fill-rule="evenodd" clip-rule="evenodd" d="M39.1261 6.05854C39.1261 6.58889 39.0517 7.10332 38.9121 7.59356C39.0383 7.73318 39.1578 7.87808 39.2701 8.02784C42.1458 8.68436 44.2767 11.0676 44.2767 13.9071C44.2767 14.2801 44.2399 14.6453 44.1695 14.9997C46.4314 15.9312 48 17.9647 48 20.3235C48 22.359 46.8318 24.1523 45.0581 25.2042C45.0748 25.3745 45.0834 25.5469 45.0834 25.7211L45.0833 25.7524L45.0831 25.7769C46.6319 26.8505 47.6277 28.5234 47.6277 30.4027C47.6277 33.6423 44.6688 36.2685 41.0187 36.2685C40.9446 36.2685 40.8708 36.2674 40.7973 36.2652C40.5671 37.0334 40.1658 37.7395 39.6317 38.3496C39.6461 38.5079 39.6535 38.668 39.6535 38.8295C39.6535 42.0691 36.6946 44.6953 33.0446 44.6953C32.8459 44.6953 32.6493 44.6875 32.4551 44.6723C32.2933 44.685 32.1299 44.6925 31.965 44.6947C30.7632 45.7988 29.0776 46.4853 27.2114 46.4853C25.8899 46.4853 24.659 46.1411 23.6263 45.5481C23.2524 45.6136 22.8671 45.6511 22.4734 45.658C21.2674 47.0803 19.3494 48 17.1894 48C13.8212 48 11.0414 45.7636 10.6323 42.8726C10.4372 42.5922 10.2678 42.2962 10.1273 41.9872C7.18842 41.3917 4.99551 39.0574 4.99551 36.2685L4.99573 36.2198C4.04073 35.3791 3.37332 34.2815 3.13605 33.0534C1.25388 32.0197 0 30.1707 0 28.0619C0 25.9781 1.22424 24.148 3.06918 23.1075C3.12855 22.5389 3.27936 21.9938 3.50844 21.484C2.35466 20.3932 1.64443 18.906 1.64443 17.2667C1.64443 15.1183 2.8642 13.2311 4.70349 12.1554C4.65062 11.8467 4.62317 11.5303 4.62317 11.2081C4.62317 8.33563 6.80378 5.93006 9.73024 5.30666C10.7785 3.23039 13.0713 1.79002 15.7311 1.79002C17.1664 1.79002 18.4949 2.20947 19.5785 2.92195C20.6622 2.20947 21.9907 1.79002 23.426 1.79002C24.7364 1.79002 25.9577 2.13964 26.985 2.74267C28.1655 1.09099 30.2023 0 32.5172 0C36.1672 0 39.1261 2.7125 39.1261 6.05854ZM30.6656 21.3401C29.599 20.2642 28.9489 18.835 28.9489 17.2667C28.9489 16.7429 29.0214 16.2347 29.1577 15.7499C28.8308 15.4516 28.5377 15.122 28.2843 14.7666C27.203 15.4738 25.8795 15.8899 24.4499 15.8899C23.2743 15.8899 22.1704 15.6085 21.2139 15.1152C20.4831 16.1084 19.4395 16.8923 18.2128 17.3482C18.1869 19.1421 17.3106 20.7479 15.9366 21.8421C16.1456 22.4132 16.2585 23.0227 16.2585 23.6557C16.2585 24.1496 16.1897 24.6294 16.0602 25.0877C16.1897 25.546 16.2585 26.0257 16.2585 26.5197C16.2585 27.1317 16.1529 27.7218 15.9571 28.2764C16.5044 29.1307 16.8171 30.1189 16.8171 31.1719C16.8171 31.6221 16.7599 32.0605 16.6517 32.4816C17.1024 32.9543 17.4704 33.4912 17.7356 34.0747C17.8389 34.0956 17.9413 34.1187 18.0426 34.1439C18.6102 34.003 19.2086 33.9276 19.8268 33.9276C20.2564 33.9276 20.6765 33.964 21.0834 34.0335C21.4902 33.964 21.9103 33.9276 22.34 33.9276C23.1798 33.9276 23.983 34.0666 24.722 34.3202C25.662 33.6253 26.8228 33.1576 28.0971 33.012C28.7976 31.01 30.6737 29.4674 33.009 29.02C32.2874 28.0801 31.8655 26.9443 31.8655 25.7211C31.8655 24.7996 32.105 23.9277 32.5316 23.1518C31.7815 22.6732 31.1447 22.0558 30.6656 21.3401Z" fill="black"/>
<path fill-rule="evenodd" clip-rule="evenodd" d="M8.37353 21.3567L9.24858 20.0047L9.89453 20.334L9.01948 21.686L8.37353 21.3567Z" fill="white"/>
<path fill-rule="evenodd" clip-rule="evenodd" d="M7.26666 35.0678L7.2163 33.5092L7.96094 33.4902L8.0113 35.0488L7.26666 35.0678Z" fill="white"/>
<path fill-rule="evenodd" clip-rule="evenodd" d="M39.6756 32.3936L40.7995 31.1952L41.3721 31.6182L40.2482 32.8166L39.6756 32.3936Z" fill="white"/>
<path fill-rule="evenodd" clip-rule="evenodd" d="M34.7685 16.7334L34.6427 15.1782L35.3857 15.1309L35.5115 16.6861L34.7685 16.7334Z" fill="white"/>
<path fill-rule="evenodd" clip-rule="evenodd" d="M32.0927 8.50589L31.9669 6.95066L32.71 6.90332L32.8357 8.45855L32.0927 8.50589Z" fill="white"/>
<path fill-rule="evenodd" clip-rule="evenodd" d="M37.2281 40.9247C35.8167 39.2381 35.4632 37.116 35.5625 35.6768L36.3255 35.7182C36.2336 37.0494 36.5681 38.9981 37.8418 40.5201C39.0948 42.0174 41.298 43.1521 45.0798 42.823L45.1544 43.4983C41.139 43.8477 38.6601 42.6359 37.2281 40.9247Z" fill="white"/>
<path fill-rule="evenodd" clip-rule="evenodd" d="M6.53448 6.29596C8.32732 7.44439 10.5015 8.23547 11.9523 8.60929L11.7391 9.26086C10.2277 8.8714 7.96829 8.05112 6.08712 6.84611C4.21915 5.64956 2.63096 4.01114 2.67268 1.97461L3.43698 1.98694C3.40225 3.68198 4.72844 5.13908 6.53448 6.29596Z" fill="white"/>
<path fill-rule="evenodd" clip-rule="evenodd" d="M17.6687 28.5184C16.0362 28.2757 14.087 27.4539 12.7988 26.7822L13.186 26.1973C14.446 26.8542 16.2997 27.6269 17.795 27.8492C18.5506 27.9616 19.1373 27.9212 19.5122 27.7284C19.8452 27.5571 20.0979 27.2178 20.0637 26.5042L20.8274 26.4753C20.8697 27.3561 20.5475 27.9801 19.8955 28.3154C19.2854 28.6291 18.477 28.6386 17.6687 28.5184Z" fill="white"/>
<line x1="25.5" y1="38" x2="25.5" y2="69" stroke="black" stroke-width="3"/>
</svg>
