<svg width="24" height="24" viewBox="0 0 24 24" fill="none" xmlns="http://www.w3.org/2000/svg">
<path d="M14.53 1.4502L13.45 2.5302L15.05 4.1302C15.27 4.3802 15.38 4.6702 15.38 5.0002C15.38 5.3302 15.27 5.6402 15.05 5.8602L11.5 9.4702L12.5 10.5502L16.13 6.9402C16.66 6.35019 16.92 5.7002 16.92 5.0002C16.92 4.3002 16.66 3.6402 16.13 3.0502L14.53 1.4502ZM10.55 3.4702L9.47 4.5502L10.08 5.1102C10.3 5.3302 10.41 5.6302 10.41 6.0002C10.41 6.3702 10.3 6.6702 10.08 6.89019L9.47 7.4502L10.55 8.5302L11.11 7.9202C11.64 7.3302 11.91 6.6902 11.91 6.0002C11.91 5.2802 11.64 4.6302 11.11 4.0302L10.55 3.4702ZM21 5.0602C20.31 5.0602 19.67 5.3302 19.08 5.8602L13.45 11.5002L14.53 12.5002L20.11 6.9402C20.36 6.6902 20.66 6.56019 21 6.56019C21.34 6.56019 21.64 6.6902 21.89 6.9402L22.5 7.5502L23.53 6.47019L22.97 5.8602C22.38 5.3302 21.72 5.0602 21 5.0602ZM7 8.0002L2 22.0002L16 17.0002L7 8.0002ZM19 11.0602C18.3 11.0602 17.66 11.3302 17.06 11.8602L15.47 13.4502L16.55 14.5302L18.14 12.9402C18.39 12.6902 18.67 12.5602 19 12.5602C19.33 12.5602 19.63 12.6902 19.88 12.9402L21.5 14.5302L22.55 13.5002L20.95 11.8602C20.36 11.3302 19.7 11.0602 19 11.0602Z" fill="black"/>
</svg>
