<svg width="626" height="454" viewBox="0 0 626 454" fill="none" xmlns="http://www.w3.org/2000/svg">
<path d="M171.885 32.8069C205.863 5.32396 236.844 0.535268 248.087 1.57629C336.157 -15.9129 414.859 117.129 416.108 153.357C417.357 189.584 369.262 177.717 365.514 188.96C361.767 200.203 486.064 279.529 487.313 298.267C488.563 317.005 469.2 336.368 471.698 376.343C474.197 416.318 501.68 426.312 504.178 433.808C506.676 441.303 100.054 476.281 104.427 426.312C108.799 376.343 141.279 411.322 113.171 376.343C85.0636 341.365 135.033 302.015 113.171 268.285C91.3097 234.556 145.651 215.194 141.279 188.96C136.906 162.726 109.423 177.092 93.8081 145.237C78.1928 113.382 129.411 67.1605 171.885 32.8069Z" fill="black"/>
<path fill-rule="evenodd" clip-rule="evenodd" d="M220.407 94.5055C232.184 84.1365 241.787 72.771 246.996 65.5195L251.054 68.4347C245.645 75.9657 235.792 87.6172 223.709 98.2559C211.665 108.86 197.164 118.673 182.46 122.187L181.299 117.327C194.827 114.094 208.59 104.91 220.407 94.5055Z" fill="white"/>
<path fill-rule="evenodd" clip-rule="evenodd" d="M290.646 76.6827C266.063 63.7441 261.783 44.8496 263.107 36.3003L268.045 37.0653C267.08 43.2985 270.087 60.2151 292.974 72.2609L290.646 76.6827Z" fill="white"/>
<path fill-rule="evenodd" clip-rule="evenodd" d="M295.939 97.8728C288.91 81.3102 288.424 64.0246 290.15 53.0737L295.086 53.8518C293.481 64.0336 293.932 80.3522 300.539 95.9206C307.107 111.395 319.759 126.159 342.726 133.533L341.198 138.29C316.695 130.424 303.009 114.529 295.939 97.8728Z" fill="white"/>
<path fill-rule="evenodd" clip-rule="evenodd" d="M337.568 39.6395C327.266 38.6882 316.323 34.4035 309.391 30.7771L311.707 26.3494C318.307 29.802 328.602 33.7934 338.027 34.6638C342.733 35.0984 347.03 34.7361 350.501 33.3088C353.887 31.9159 356.588 29.4748 358.198 25.4492L362.837 27.305C360.7 32.6487 356.972 36.0502 352.401 37.9301C347.914 39.7754 342.725 40.1158 337.568 39.6395Z" fill="white"/>
<path fill-rule="evenodd" clip-rule="evenodd" d="M162.007 28.4731C176.04 27.097 192.131 26.0171 202.668 25.4434L202.94 30.4329C192.448 31.0042 176.433 32.0793 162.495 33.4462C155.52 34.1301 149.103 34.8835 144.169 35.6779C141.698 36.0757 139.644 36.4767 138.098 36.8732C137.324 37.0716 136.715 37.2591 136.264 37.4303C135.834 37.5935 135.66 37.6999 135.633 37.7163C135.63 37.7185 135.629 37.7191 135.63 37.7179L132.562 33.7736C133.137 33.3265 133.844 33.004 134.492 32.7582C135.178 32.4981 135.979 32.2579 136.857 32.0328C138.615 31.5822 140.837 31.1531 143.375 30.7445C148.459 29.9259 154.995 29.1608 162.007 28.4731Z" fill="white"/>
<path fill-rule="evenodd" clip-rule="evenodd" d="M105.17 109.26C111.817 107.884 117.918 104.79 121.447 102.388L124.259 106.519C120.293 109.218 113.589 112.62 106.183 114.153C98.7823 115.685 90.3034 115.417 83.2656 110.209L86.238 106.193C91.6925 110.229 98.5165 110.637 105.17 109.26Z" fill="white"/>
<path fill-rule="evenodd" clip-rule="evenodd" d="M159.223 210.513C164.931 195.679 174.807 181.416 182.163 172.789L185.965 176.031C178.851 184.373 169.333 198.155 163.886 212.308C158.381 226.615 157.379 240.322 165.629 249.575L161.899 252.9C151.66 241.416 153.574 225.193 159.223 210.513Z" fill="white"/>
<path fill-rule="evenodd" clip-rule="evenodd" d="M110.338 267.868C116.011 262.123 120.068 253.551 122.032 247.358L126.795 248.869C124.699 255.48 120.324 264.866 113.894 271.379C110.661 274.654 106.789 277.322 102.306 278.427C97.7603 279.548 92.8175 279.004 87.6348 276.239L89.9862 271.83C94.1726 274.063 97.8574 274.378 101.11 273.576C104.424 272.758 107.521 270.722 110.338 267.868Z" fill="white"/>
<path fill-rule="evenodd" clip-rule="evenodd" d="M118.179 372.062C124.508 364.077 129.962 353.33 133.035 345.853L137.657 347.752C134.483 355.474 128.819 366.683 122.094 375.166C118.742 379.395 114.995 383.117 111.017 385.327C106.97 387.576 102.469 388.356 98.0332 386.218L100.203 381.717C102.763 382.951 105.507 382.672 108.589 380.959C111.739 379.209 115.004 376.068 118.179 372.062Z" fill="white"/>
<path fill-rule="evenodd" clip-rule="evenodd" d="M140.127 420.698L159.178 391.653L163.356 394.394L144.305 423.438L140.127 420.698Z" fill="white"/>
<path fill-rule="evenodd" clip-rule="evenodd" d="M332.519 243.372C324.244 232.921 318.654 221.949 316.018 214.954L320.693 213.191C323.158 219.729 328.498 230.244 336.437 240.27C344.384 250.307 354.781 259.66 367.301 264.191L365.6 268.889C351.887 263.926 340.786 253.812 332.519 243.372Z" fill="white"/>
<path fill-rule="evenodd" clip-rule="evenodd" d="M392.77 202.658L355.293 175.176L358.248 171.146L395.725 198.629L392.77 202.658Z" fill="white"/>
<path fill-rule="evenodd" clip-rule="evenodd" d="M228.737 397.579L201.01 290.59L205.847 289.336L235.616 404.206L231.591 403.265C226.101 401.98 219.575 401.178 213.23 401.482C206.86 401.787 200.869 403.197 196.27 406.157C191.765 409.057 188.453 413.527 187.435 420.374C186.4 427.335 187.72 436.905 192.941 449.867L188.306 451.734C182.91 438.338 181.276 427.819 182.492 419.639C183.725 411.345 187.87 405.622 193.566 401.955C199.169 398.349 206.126 396.82 212.99 396.491C218.372 396.233 223.819 396.706 228.737 397.579Z" fill="white"/>
<path fill-rule="evenodd" clip-rule="evenodd" d="M283.74 452.486L318.406 282.904L323.302 283.905L288.636 453.487L283.74 452.486Z" fill="white"/>
<path fill-rule="evenodd" clip-rule="evenodd" d="M351.66 395.481L373.209 344.887L377.807 346.845L356.257 397.439L351.66 395.481Z" fill="white"/>
<path fill-rule="evenodd" clip-rule="evenodd" d="M396.524 447.41C383.838 401.789 349.998 393.417 335.982 397.902L334.459 393.143C351.674 387.634 388.04 398.251 401.338 446.071L396.524 447.41Z" fill="white"/>
<path fill-rule="evenodd" clip-rule="evenodd" d="M216.71 448.377C217.186 450.288 217.509 451.463 217.634 451.797L212.955 453.551C212.705 452.885 212.307 451.375 211.861 449.585C211.396 447.717 210.83 445.345 210.238 442.811C209.054 437.74 207.756 431.985 206.922 428.231L211.8 427.147C212.631 430.89 213.925 436.627 215.104 441.675C215.694 444.2 216.253 446.544 216.71 448.377Z" fill="white"/>
<path fill-rule="evenodd" clip-rule="evenodd" d="M232.147 418.07L235.583 452.111L230.611 452.613L227.176 418.572L232.147 418.07Z" fill="white"/>
<path fill-rule="evenodd" clip-rule="evenodd" d="M258.684 430.829L255.874 452.066L250.92 451.41L253.731 430.173L258.684 430.829Z" fill="white"/>
<path fill-rule="evenodd" clip-rule="evenodd" d="M362.624 423.003L369.183 448.3L364.346 449.554L357.787 424.257L362.624 423.003Z" fill="white"/>
<path fill-rule="evenodd" clip-rule="evenodd" d="M351.342 421.268L341.66 451.561L336.9 450.04L346.582 419.747L351.342 421.268Z" fill="white"/>
<path fill-rule="evenodd" clip-rule="evenodd" d="M322.065 428.429L318.006 451.852L313.082 450.998L317.142 427.575L322.065 428.429Z" fill="white"/>
<path fill-rule="evenodd" clip-rule="evenodd" d="M493.565 298.002C461.583 306.323 444.395 289.532 439.76 279.451L444.3 277.364C447.993 285.396 462.826 300.836 492.307 293.166L493.565 298.002Z" fill="white"/>
<path fill-rule="evenodd" clip-rule="evenodd" d="M447.588 381.604C442.804 375.493 441.979 368.209 442.678 363.314L447.625 364.021C447.075 367.871 447.749 373.704 451.522 378.524C455.217 383.243 462.211 387.403 475.133 387.403V392.4C461.071 392.4 452.45 387.815 447.588 381.604Z" fill="white"/>
<path d="M239.009 116.764L257.149 90.5755C258.943 87.9861 262.656 87.6821 264.847 89.9452L288.155 114.019C291.14 117.103 289.106 122.267 284.819 122.486L243.371 124.599C239.228 124.811 236.647 120.174 239.009 116.764Z" fill="white"/>
<path fill-rule="evenodd" clip-rule="evenodd" d="M237.577 264.392L242.882 253.814L247.367 256.064L242.062 266.642L237.577 264.392Z" fill="white"/>
<path fill-rule="evenodd" clip-rule="evenodd" d="M188.004 352.472L182.187 342.167L186.557 339.7L192.374 350.005L188.004 352.472Z" fill="white"/>
<path fill-rule="evenodd" clip-rule="evenodd" d="M289.358 364.907L283.54 354.602L287.91 352.135L293.727 362.44L289.358 364.907Z" fill="white"/>
<path fill-rule="evenodd" clip-rule="evenodd" d="M410.98 303.512L406.655 292.497L411.326 290.663L415.651 301.678L410.98 303.512Z" fill="white"/>
<path fill-rule="evenodd" clip-rule="evenodd" d="M444.043 419.408L437.54 402.847L443.258 400.602L449.76 417.163L444.043 419.408Z" fill="white"/>
<path d="M55 250.09C46 274.424 22.6 321.29 1 314.09" stroke="black" stroke-width="4"/>
<path d="M545.748 388.54C565.354 405.531 608.433 435.335 623.896 418.622" stroke="black" stroke-width="4"/>
<path d="M44.5746 396.209L20.8447 386.996" stroke="black" stroke-width="4"/>
<path d="M557.92 342.133L533.575 349.573" stroke="black" stroke-width="4"/>
</svg>
