<svg width="1124" height="250" viewBox="0 0 1124 250" fill="none" xmlns="http://www.w3.org/2000/svg">
<g clip-path="url(#clip0_234_6862)">
<rect width="1124" height="250" fill="white"/>
<path d="M583.7 76L571.3 88.2222L580.6 97.3889L583.7 94.3333L586.8 97.3889L593 91.2778L583.7 82.1111V76ZM534.1 88.2222L531 91.2778L540.3 100.444V109.611L537.2 112.667V131H543.4V121.833L549.6 112.667H571.3V131H577.5V100.444L568.2 91.2778L565.1 94.3333H540.3L534.1 88.2222Z" fill="#9A9A9A"/>
<path d="M473.891 159.627H456.562V161.793H473.891V159.627ZM458.541 166.417C458.541 168.656 461.04 169.927 465.185 169.916C469.299 169.927 471.767 168.656 471.788 166.417C471.767 164.188 469.299 162.928 465.185 162.939C461.04 162.928 458.541 164.188 458.541 166.417ZM458.666 158.294H471.913V156.19H461.311V153.608H471.809V151.462H458.666V158.294ZM461.249 166.417C461.238 165.459 462.561 164.959 465.185 164.959C467.757 164.959 469.111 165.459 469.122 166.417C469.111 167.417 467.757 167.896 465.185 167.896C462.561 167.896 461.238 167.417 461.249 166.417ZM492.324 161.127H484.972V159.752H490.575V157.711H479.786V156.461H490.221V151.317H477.099V153.379H487.555V154.545H477.141V159.752H482.327V161.127H474.974V163.251H492.324V161.127ZM476.911 166.417H487.638V169.833H490.325V164.334H476.911V166.417ZM504.488 156.774H497.781V154.233H504.321V152.108H495.115V158.898H498.427V160.898C496.709 160.939 495.032 160.96 493.511 160.96L493.866 163.064C497.375 163.064 501.655 162.96 505.675 162.397L505.488 160.502C504.082 160.648 502.593 160.741 501.093 160.814V158.898H504.488V156.774ZM496.448 169.583H509.862V167.458H499.135V164.147H496.448V169.583ZM506.654 165.23H509.362V150.942H506.654V165.23ZM532.647 150.963H529.961V169.958H532.647V150.963ZM517.339 159.044C517.328 163.21 519.442 165.813 522.358 165.813C525.212 165.813 527.336 163.21 527.336 159.044C527.336 154.91 525.212 152.296 522.358 152.296C519.442 152.296 517.328 154.91 517.339 159.044ZM519.901 159.044C519.89 156.232 520.88 154.691 522.358 154.691C523.796 154.691 524.764 156.232 524.774 159.044C524.764 161.866 523.796 163.407 522.358 163.397C520.88 163.407 519.89 161.866 519.901 159.044ZM545.311 152.671H536.147V165.396H545.311V152.671ZM538.813 163.293V154.753H542.728V163.293H538.813ZM548.394 169.958H551.08V150.963H548.394V169.958ZM560.995 156.128V154.962H564.952V152.795H554.246V154.962H558.266V156.128C558.266 159.336 556.641 162.845 553.496 164.251L555.017 166.355C557.256 165.324 558.828 163.241 559.682 160.752C560.536 163.043 562.078 164.928 564.306 165.876L565.743 163.793C562.567 162.47 560.984 159.19 560.995 156.128ZM566.826 169.916H569.513V150.963H566.826V169.916ZM587.03 150.963H584.364V169.875H587.03V160.419H589.717V158.232H587.03V150.963ZM571.867 164.563L573.366 166.605C579.74 163.47 581.948 158.565 581.968 152.9H572.95V155.066H579.271C578.771 159.294 576.355 162.314 571.867 164.563ZM599.985 162.043H597.527V169.708H604.484V168.24L605.567 169.875C607.108 169.281 608.149 168.187 608.774 166.865C609.378 168.229 610.43 169.312 612.065 169.875L613.44 167.896C611.065 167.125 610.139 165.292 610.149 163.355V161.897H607.483V163.355C607.483 165.074 606.587 166.844 604.484 167.802V162.043H602.026V163.939H599.985V162.043ZM595.673 156.128C595.653 158.773 597.798 160.627 600.714 160.627C603.13 160.627 605.067 159.263 605.577 157.211H608.753V161.002H611.399V150.963H608.753V155.024H605.567C605.046 153.014 603.119 151.681 600.714 151.671C597.798 151.681 595.653 153.524 595.673 156.128ZM598.194 156.128C598.183 154.732 599.225 153.868 600.714 153.858C602.151 153.868 603.182 154.732 603.192 156.128C603.182 157.565 602.151 158.45 600.714 158.461C599.225 158.45 598.183 157.565 598.194 156.128ZM599.985 167.688V165.896H602.026V167.688H599.985ZM618.501 162.335H615.877V169.708H628.957V162.335H626.312V163.939H618.501V162.335ZM613.856 161.377H631.144V159.231H613.856V161.377ZM614.71 156.315L615.668 158.398C618.897 157.982 621.271 156.628 622.5 154.795C623.718 156.628 626.093 157.982 629.352 158.398L630.29 156.315C626.051 155.836 623.875 153.691 623.875 151.796V151.15H621.146V151.796C621.125 153.743 618.938 155.805 614.71 156.315ZM618.501 167.625V165.959H626.312V167.625H618.501ZM648.223 150.963H645.578V169.916H648.223V150.963ZM633.31 165.23H634.976C637.902 165.24 641.047 165.032 644.37 164.334L644.036 162.147C641.245 162.689 638.496 162.928 635.934 162.97V152.775H633.31V165.23ZM665.677 150.963H663.011V169.958H665.677V160.169H668.468V158.003H665.677V150.963ZM651.472 165.355H653.076C656.419 165.365 659.001 165.292 661.948 164.792L661.657 162.564C659.137 163.001 656.866 163.147 654.117 163.168V154.857H660.366V152.712H651.472V165.355Z" fill="#9A9A9A"/>
</g>
<defs>
<clipPath id="clip0_234_6862">
<rect width="1124" height="250" fill="white"/>
</clipPath>
</defs>
</svg>
