<svg width="735" height="363" viewBox="0 0 735 363" fill="none" xmlns="http://www.w3.org/2000/svg">
<path fill-rule="evenodd" clip-rule="evenodd" d="M111.595 13.0647C117.103 13.9661 121.853 17.1223 124.865 21.5544C127.05 20.7324 129.418 20.2828 131.89 20.2828C142.912 20.2828 151.847 29.2178 151.847 40.2397C151.847 40.5079 151.842 40.7749 151.831 41.0406C157.628 44.5325 161.505 50.8874 161.505 58.1479C161.505 69.1698 152.57 78.1049 141.548 78.1049C134.715 78.1049 128.684 74.6704 125.087 69.4335C121.952 71.4819 118.207 72.6726 114.183 72.6726C110.096 72.6726 106.297 71.4443 103.133 69.3366C100.452 70.6756 97.4274 71.429 94.2269 71.429C86.9837 71.429 80.6416 67.5702 77.1445 61.7962C77.1544 62.0546 77.1594 62.3143 77.1594 62.5751C77.1594 70.9133 72.0459 78.0571 64.7837 81.0417C64.9587 82.1043 65.0496 83.1953 65.0496 84.3075C65.0496 90.6566 62.0848 96.3132 57.464 99.9683C63.7054 103.017 68.1203 109.227 68.6244 116.513C71.7316 119.709 73.7772 123.944 74.1918 128.646C76.2242 127.948 78.4046 127.57 80.6736 127.57C84.763 127.57 88.5651 128.8 91.7302 130.91C95.3512 127.224 100.393 124.937 105.968 124.937C108.741 124.937 111.381 125.502 113.78 126.524C115.579 125.758 117.513 125.249 119.536 125.042C119.519 124.852 119.504 124.661 119.492 124.47C115.028 123.486 111.126 121.009 108.335 117.588C99.0304 115.894 91.9762 107.748 91.9762 97.9548C91.9762 86.9329 100.911 77.9979 111.933 77.9979C112.102 77.9979 112.269 78 112.437 78.0041C112.604 78 112.772 77.9979 112.94 77.9979C117.176 77.9979 121.104 79.3175 124.334 81.568C126.929 80.3338 129.832 79.643 132.896 79.643C141.874 79.643 149.468 85.5714 151.975 93.7271C161.778 94.9926 169.352 103.371 169.352 113.519C169.352 117.995 167.878 122.127 165.39 125.456C166.73 128.138 167.485 131.164 167.485 134.366C167.485 140.849 164.393 146.61 159.605 150.256C159.503 151.326 159.317 152.373 159.053 153.388C159.258 154.533 159.364 155.712 159.364 156.915C159.364 167.937 150.429 176.872 139.407 176.872C136.65 176.872 134.023 176.313 131.635 175.302C128.06 178.678 123.239 180.747 117.934 180.747C112.812 180.747 108.14 178.817 104.607 175.645C101.073 178.817 96.4018 180.747 91.2794 180.747C89.7878 180.747 88.3343 180.584 86.936 180.273C83.4903 183.107 79.0783 184.808 74.269 184.808C65.1219 184.808 57.4121 178.654 55.0539 170.26C54.4781 170.31 53.8953 170.336 53.3065 170.336C42.2846 170.336 33.3496 161.401 33.3496 150.379C33.3496 149.366 33.425 148.371 33.5705 147.399C23.6157 146.274 15.8799 137.825 15.8799 127.57C15.8799 121.753 18.3684 116.517 22.339 112.87C19.1974 109.343 17.2886 104.694 17.2886 99.6C17.2886 93.414 20.1031 87.8853 24.5214 84.2247C20.1031 80.5641 17.2886 75.0355 17.2886 68.8495C17.2886 60.0884 22.934 52.6458 30.7856 49.9612C28.3718 46.6614 26.9468 42.5926 26.9468 38.1909C26.9468 27.169 35.8818 18.234 46.9037 18.234C52.8794 18.234 58.2416 20.8603 61.8991 25.0216C62.3081 24.8021 62.7257 24.5964 63.1513 24.4052C65.203 15.5657 73.1281 8.97852 82.5918 8.97852C85.6126 8.97852 88.4766 9.64968 91.043 10.851C93.6093 9.64968 96.4733 8.97852 99.4941 8.97852C104.044 8.97852 108.238 10.5012 111.595 13.0647Z" fill="black"/>
<path fill-rule="evenodd" clip-rule="evenodd" d="M49.6643 162.446L46.2325 156.317L47.9033 155.381L51.3352 161.51L49.6643 162.446Z" fill="white"/>
<path fill-rule="evenodd" clip-rule="evenodd" d="M39.7066 66.3026L39.9376 59.2822L41.8516 59.3452L41.6205 66.3656L39.7066 66.3026Z" fill="white"/>
<path fill-rule="evenodd" clip-rule="evenodd" d="M84.4427 59.296L78.0938 56.2909L78.9131 54.5601L85.262 57.5651L84.4427 59.296Z" fill="white"/>
<path fill-rule="evenodd" clip-rule="evenodd" d="M15.808 93.3441C21.7386 90.8093 27.7702 85.2272 31.5163 80.8296L32.2775 81.4781C28.4909 85.9232 22.3392 91.6402 16.201 94.2637C13.1284 95.5769 9.99937 96.1405 7.15406 95.3126C4.28835 94.4787 1.81218 92.2638 0 88.2367L0.911922 87.8264C2.63685 91.6595 4.91777 93.6204 7.43345 94.3524C9.96954 95.0904 12.8462 94.61 15.808 93.3441Z" fill="white"/>
<path fill-rule="evenodd" clip-rule="evenodd" d="M74.3928 16.2442C76.5974 22.2022 81.7167 28.329 85.7865 32.1546L85.1016 32.8833C80.9837 29.0124 75.7373 22.7593 73.455 16.5912C72.3124 13.5034 71.8921 10.3809 72.7907 7.57447C73.6955 4.74842 75.9081 2.33368 79.8404 0.619629L80.24 1.53632C76.5085 3.16288 74.5412 5.3865 73.743 7.87941C72.9385 10.392 73.292 13.2691 74.3928 16.2442Z" fill="white"/>
<path fill-rule="evenodd" clip-rule="evenodd" d="M100.412 187.053C102.326 179.861 102.793 170.312 102.63 163.699L103.63 163.675C103.794 170.327 103.328 179.986 101.378 187.311C100.406 190.961 99.0457 194.112 97.145 196C96.1855 196.953 95.0752 197.598 93.8018 197.805C92.529 198.012 91.1439 197.774 89.6484 197.052L90.0832 196.152C91.437 196.805 92.6137 196.985 93.6412 196.818C94.668 196.651 95.5965 196.129 96.4403 195.291C98.1463 193.596 99.4511 190.661 100.412 187.053Z" fill="white"/>
<path fill-rule="evenodd" clip-rule="evenodd" d="M693.745 222.427C697.617 223.061 700.956 225.28 703.074 228.396C704.61 227.818 706.274 227.502 708.012 227.502C715.761 227.502 722.042 233.784 722.042 241.532C722.042 241.721 722.039 241.908 722.031 242.095C726.107 244.55 728.833 249.017 728.833 254.122C728.833 261.87 722.551 268.152 714.803 268.152C709.999 268.152 705.758 265.737 703.23 262.055C701.026 263.495 698.393 264.332 695.564 264.332C692.691 264.332 690.02 263.469 687.796 261.987C685.911 262.929 683.784 263.458 681.534 263.458C676.443 263.458 671.985 260.746 669.526 256.688C669.533 256.869 669.536 257.051 669.536 257.234C669.536 263.096 665.942 268.118 660.836 270.216C660.959 270.963 661.023 271.73 661.023 272.512C661.023 276.975 658.938 280.952 655.69 283.522C660.078 285.665 663.181 290.031 663.536 295.153C665.72 297.4 667.158 300.377 667.449 303.682C668.878 303.192 670.411 302.926 672.006 302.926C674.881 302.926 677.555 303.791 679.78 305.274C682.325 302.682 685.87 301.074 689.79 301.074C691.739 301.074 693.595 301.472 695.281 302.19C696.546 301.652 697.905 301.294 699.327 301.148C699.315 301.015 699.304 300.881 699.296 300.746C696.158 300.055 693.414 298.313 691.452 295.908C684.912 294.717 679.953 288.991 679.953 282.106C679.953 274.357 686.234 268.076 693.983 268.076C694.101 268.076 694.219 268.077 694.337 268.08C694.454 268.077 694.572 268.076 694.691 268.076C697.668 268.076 700.429 269.004 702.701 270.586C704.525 269.718 706.566 269.233 708.72 269.233C715.032 269.233 720.37 273.401 722.133 279.134C729.024 280.025 734.348 285.915 734.348 293.048C734.348 296.195 733.312 299.099 731.562 301.44C732.505 303.325 733.035 305.453 733.035 307.704C733.035 312.262 730.862 316.312 727.495 318.875C727.424 319.627 727.293 320.361 727.108 321.074C727.252 321.88 727.327 322.709 727.327 323.556C727.327 331.304 721.045 337.586 713.297 337.586C711.359 337.586 709.512 337.193 707.833 336.482C705.32 338.855 701.93 340.31 698.201 340.31C694.6 340.31 691.316 338.954 688.832 336.724C686.348 338.954 683.064 340.31 679.463 340.31C678.414 340.31 677.392 340.195 676.409 339.977C673.986 341.968 670.885 343.164 667.504 343.164C661.074 343.164 655.654 338.838 653.996 332.938C653.591 332.973 653.181 332.991 652.766 332.991C645.018 332.991 638.736 326.709 638.736 318.961C638.736 318.249 638.789 317.55 638.892 316.866C631.894 316.075 626.456 310.135 626.456 302.926C626.456 298.837 628.206 295.156 630.997 292.592C628.788 290.112 627.446 286.844 627.446 283.262C627.446 278.914 629.425 275.027 632.531 272.454C629.425 269.88 627.446 265.994 627.446 261.645C627.446 255.486 631.415 250.253 636.935 248.366C635.238 246.046 634.236 243.186 634.236 240.092C634.236 232.344 640.518 226.062 648.266 226.062C652.467 226.062 656.237 227.908 658.808 230.834C659.095 230.679 659.389 230.535 659.688 230.4C661.13 224.186 666.702 219.555 673.355 219.555C675.479 219.555 677.492 220.027 679.296 220.871C681.101 220.027 683.114 219.555 685.238 219.555C688.436 219.555 691.385 220.625 693.745 222.427Z" fill="black"/>
<path fill-rule="evenodd" clip-rule="evenodd" d="M703.245 328.711L705.409 324.272L706.619 324.862L704.455 329.3L703.245 328.711Z" fill="white"/>
<path fill-rule="evenodd" clip-rule="evenodd" d="M650.207 327.444L647.794 323.135L648.969 322.478L651.381 326.786L650.207 327.444Z" fill="white"/>
<path fill-rule="evenodd" clip-rule="evenodd" d="M643.206 259.854L643.368 254.918L644.714 254.963L644.551 259.898L643.206 259.854Z" fill="white"/>
<path fill-rule="evenodd" clip-rule="evenodd" d="M667.731 224.61C669.27 228.768 672.85 233.056 675.704 235.739L675.019 236.467C672.117 233.74 668.41 229.325 666.794 224.957C665.984 222.77 665.679 220.538 666.324 218.522C666.976 216.485 668.568 214.759 671.362 213.542L671.762 214.458C669.169 215.589 667.822 217.124 667.277 218.827C666.725 220.549 666.964 222.536 667.731 224.61Z" fill="white"/>
<path fill-rule="evenodd" clip-rule="evenodd" d="M685.74 344.704C687.08 339.668 687.409 332.971 687.294 328.328L688.294 328.303C688.41 332.986 688.082 339.792 686.706 344.961C686.021 347.535 685.056 349.781 683.691 351.138C683 351.825 682.192 352.296 681.26 352.447C680.329 352.599 679.324 352.423 678.252 351.906L678.687 351.005C679.617 351.454 680.414 351.572 681.1 351.46C681.785 351.349 682.411 351 682.987 350.428C684.157 349.265 685.066 347.234 685.74 344.704Z" fill="white"/>
<path fill-rule="evenodd" clip-rule="evenodd" d="M253.214 47.9055C250.685 43.7726 246.129 41.0146 240.929 41.0146C236.819 41.0146 233.111 42.7378 230.488 45.5012C227.98 43.3769 224.736 42.0958 221.191 42.0958C215.712 42.0958 210.947 45.1584 208.516 49.6652C205.757 47.9799 202.514 47.0087 199.044 47.0087C188.993 47.0087 180.845 55.1568 180.845 65.2079C180.845 67.8753 181.419 70.4087 182.45 72.6913C180.256 75.6972 178.962 79.4008 178.962 83.4066C178.962 88.4455 181.01 93.0061 184.319 96.3015C183.354 98.522 182.819 100.972 182.819 103.548C182.819 103.822 182.825 104.094 182.837 104.365C182.825 104.636 182.819 104.908 182.819 105.182C182.819 109.732 184.489 113.893 187.25 117.083C187.037 117.66 186.853 118.25 186.698 118.852C184.05 121.299 182.129 124.523 181.3 128.162C179.811 130.8 178.962 133.847 178.962 137.091C178.962 139.353 179.375 141.519 180.129 143.517C178.33 146.339 177.288 149.69 177.288 153.285C177.288 163.336 185.436 171.484 195.487 171.484C205.538 171.484 213.686 163.336 213.686 153.285C213.686 151.939 213.54 150.627 213.263 149.364C215.754 146.251 217.243 142.301 217.243 138.004C217.243 137.424 217.216 136.851 217.163 136.285C219.501 133.96 221.211 131.003 222.015 127.692C223.437 128.162 224.958 128.417 226.538 128.417C227.943 128.417 229.302 128.215 230.586 127.84C231.557 128.843 232.673 129.705 233.899 130.393C233.709 131.327 233.609 132.294 233.609 133.284C233.609 137.155 235.137 140.669 237.623 143.256C237.17 144.655 236.924 146.148 236.924 147.699C236.924 153.462 240.313 158.435 245.206 160.733C246.831 166.9 252.446 171.447 259.124 171.447C259.332 171.447 259.539 171.442 259.745 171.434C260.148 171.467 260.555 171.485 260.966 171.485C268.914 171.485 275.358 165.041 275.358 157.093C275.358 156.133 275.264 155.195 275.085 154.288C275.264 153.381 275.358 152.443 275.358 151.484C275.358 147.298 273.571 143.529 270.718 140.899C270.735 140.61 270.744 140.318 270.744 140.025C270.744 137.299 269.986 134.751 268.67 132.578C269.343 130.913 269.714 129.094 269.714 127.188C269.714 124.467 268.959 121.922 267.646 119.751C271.098 117.528 273.611 113.635 274.341 109.035C281.905 108.607 287.908 102.337 287.908 94.666C287.908 92.8697 287.578 91.1503 286.977 89.5648C287.131 88.7226 287.211 87.8549 287.211 86.9685C287.211 80.5748 283.042 75.1549 277.273 73.2793C278.224 71.3577 278.759 69.1934 278.759 66.9042C278.759 59.5455 273.236 53.4768 266.109 52.6168C263.472 49.6334 259.617 47.7522 255.322 47.7522C254.606 47.7522 253.902 47.8045 253.214 47.9055ZM219.123 101.688C221.289 100.383 223.826 99.6332 226.538 99.6332C230.597 99.6332 234.264 101.314 236.881 104.018C237.611 103.804 238.366 103.646 239.14 103.55C240.244 99.5153 243.059 96.1873 246.757 94.3958C247.094 93.5339 247.512 92.7124 248.001 91.9407L248.001 91.8805C248.001 91.011 248.078 90.1594 248.226 89.3324C247.388 88.0901 246.739 86.7099 246.32 85.2332C243.787 85.0499 241.436 84.211 239.435 82.8854C238.209 83.2251 236.918 83.4065 235.584 83.4065C231.843 83.4065 228.436 81.9798 225.877 79.6409C224.995 82.8203 223.272 85.6498 220.962 87.8745C221.113 88.8193 221.192 89.7884 221.192 90.7758C221.192 94.0434 220.33 97.1099 218.823 99.7607C218.956 100.392 219.057 101.034 219.123 101.688Z" fill="black"/>
<path fill-rule="evenodd" clip-rule="evenodd" d="M261.956 141.597L265.062 135.296L266.779 136.143L263.674 142.443L261.956 141.597Z" fill="white"/>
<path fill-rule="evenodd" clip-rule="evenodd" d="M185.161 160.038L182.399 153.58L184.159 152.827L186.922 159.285L185.161 160.038Z" fill="white"/>
<path fill-rule="evenodd" clip-rule="evenodd" d="M191.61 65.4404L194.293 62.3579L195.737 63.6152L193.054 66.6977L191.61 65.4404Z" fill="white"/>
<path fill-rule="evenodd" clip-rule="evenodd" d="M262.517 117.091L261.47 113.14L263.321 112.65L264.368 116.6L262.517 117.091Z" fill="white"/>
<path fill-rule="evenodd" clip-rule="evenodd" d="M278.682 98.556L279.977 94.6799L281.793 95.2866L280.498 99.1627L278.682 98.556Z" fill="white"/>
<path fill-rule="evenodd" clip-rule="evenodd" d="M265.485 66.2347L266.779 62.3586L268.596 62.9653L267.301 66.8414L265.485 66.2347Z" fill="white"/>
<path fill-rule="evenodd" clip-rule="evenodd" d="M198.973 48.0963C199.568 53.5458 201.613 59.859 203.323 64.0123L202.398 64.393C200.67 60.1947 198.588 53.7842 197.979 48.2048C197.675 45.4203 197.732 42.7902 198.421 40.7346C199.12 38.6506 200.487 37.1262 202.767 36.6919L202.954 37.6742C201.108 38.026 199.981 39.2281 199.369 41.0527C198.748 42.9058 198.675 45.3663 198.973 48.0963Z" fill="white"/>
<path fill-rule="evenodd" clip-rule="evenodd" d="M53.4624 232.341C50.9603 231.011 48.0664 230.344 45.0312 230.558C40.6194 230.868 36.7642 232.98 34.1332 236.123C28.8035 238.923 25.349 244.687 25.7991 251.077C26.1302 255.779 28.5067 259.849 31.9977 262.479C29.8819 265.361 28.7382 268.981 29.0091 272.827C29.2238 275.877 30.2989 278.66 31.9802 280.957C30.6368 283.468 29.9622 286.375 30.177 289.425C30.494 293.927 32.6859 297.849 35.9357 300.482C34.0634 303.271 33.0714 306.682 33.3256 310.292C33.662 315.068 36.1082 319.191 39.6891 321.816C36.5113 324.597 34.6268 328.78 34.9463 333.317C35.4883 341.013 42.1666 346.813 49.8627 346.271C50.7121 346.211 51.5383 346.076 52.3355 345.874C54.635 346.924 57.2224 347.431 59.9215 347.241C68.5399 346.634 75.0345 339.155 74.4276 330.537C74.1456 326.533 72.3807 322.988 69.7076 320.4C70.5759 318.259 70.9813 315.891 70.808 313.431C70.6547 311.254 70.0628 309.212 69.1249 307.386C69.7975 305.447 70.0973 303.343 69.9439 301.166C69.7269 298.084 68.6312 295.274 66.9189 292.963C67.9778 291.012 68.6312 288.817 68.7745 286.5C68.862 286.508 68.9496 286.515 69.0374 286.522C69.9615 291.171 72.9223 295.024 76.897 297.193C74.8338 300.058 73.7231 303.633 73.9905 307.429C74.3255 312.186 76.7537 316.296 80.3114 318.922C78.4859 321.69 77.5226 325.059 77.7736 328.623C78.3805 337.241 85.8591 343.736 94.4776 343.129C96.1777 343.009 97.7953 342.622 99.292 342.011C100.859 342.406 102.515 342.563 104.216 342.443C105.629 342.343 106.985 342.059 108.262 341.615C109.415 341.842 110.611 341.941 111.832 341.897C114.267 343.128 117.056 343.737 119.975 343.531C128.593 342.925 135.088 335.446 134.481 326.828C134.245 323.48 132.973 320.452 130.999 318.037C134.019 314.952 135.756 310.637 135.429 305.991C135.21 302.883 134.097 300.05 132.359 297.728C132.51 297.521 132.656 297.31 132.796 297.096C135.797 294.137 137.59 289.989 137.453 285.486C138.129 282.957 138.409 280.193 138.206 277.32L138.205 277.296C138.5 277.291 138.798 277.278 139.097 277.257C139.583 277.223 140.063 277.168 140.535 277.092C140.942 277.636 141.385 278.151 141.862 278.636C139.829 281.386 138.733 284.802 138.988 288.424C139.25 292.152 140.9 295.463 143.418 297.925C141.27 300.716 140.101 304.226 140.363 307.954C140.388 308.306 140.425 308.655 140.475 309C137.139 312.004 135.18 316.372 135.512 321.088C135.762 324.639 137.271 327.813 139.59 330.234C140.889 337.796 147.971 343.28 156.078 342.709C159.828 342.445 163.18 340.929 165.722 338.616C165.842 338.602 165.962 338.587 166.082 338.571C168.32 339.508 170.821 339.951 173.43 339.767C182.048 339.16 188.561 331.94 187.976 323.64C187.742 320.31 186.401 317.313 184.323 314.956C186.05 312.332 186.957 309.176 186.723 305.847C186.49 302.544 185.168 299.567 183.118 297.219C183.715 295.441 183.978 293.527 183.839 291.552C183.468 286.283 180.326 281.845 175.877 279.462C177.782 276.76 178.799 273.45 178.553 269.948C178.334 266.844 177.154 264.029 175.312 261.752C176.818 259.24 177.592 256.286 177.373 253.182C176.982 247.625 173.508 242.992 168.668 240.72C168.664 240.626 168.658 240.533 168.651 240.439C168.067 232.138 160.606 225.902 151.988 226.509C151.389 226.551 150.8 226.625 150.223 226.729C147.346 224.7 143.731 223.608 139.885 223.878C131.658 224.458 125.349 231.064 125.302 238.883C121.947 241.804 119.923 246.081 120.119 250.73L120.112 250.73C111.494 251.337 104.981 258.558 105.566 266.858C105.721 269.064 106.362 271.125 107.382 272.95C107.02 274.813 106.868 276.781 106.956 278.81C105.755 276.038 103.781 273.699 101.323 272.044C101.476 270.966 101.519 269.855 101.439 268.725C101.01 262.623 97.1361 257.587 91.8526 255.38C89.8674 248.416 83.2218 243.551 75.7105 244.08C75.1131 244.122 74.5259 244.197 73.9506 244.303C72.5366 236.564 65.4956 230.963 57.4648 231.529C56.0678 231.627 54.7266 231.906 53.4624 232.341Z" fill="black"/>
<path fill-rule="evenodd" clip-rule="evenodd" d="M49.7039 334.416L48.7259 329.039L50.4648 328.723L51.4429 334.1L49.7039 334.416Z" fill="white"/>
<path fill-rule="evenodd" clip-rule="evenodd" d="M174.442 300.378L172.644 296.617L174.239 295.855L176.037 299.616L174.442 300.378Z" fill="white"/>
<path fill-rule="evenodd" clip-rule="evenodd" d="M148.033 322.609L149.585 318.741L151.226 319.399L149.673 323.267L148.033 322.609Z" fill="white"/>
<path d="M33.8966 313.644C28.4357 301.841 27.9507 282.81 28.412 274.04C28.4375 273.554 28.6453 273.098 28.9896 272.754L35.7627 265.98C36.8974 264.846 38.8381 265.441 39.1368 267.018C40.9561 276.622 43.5778 290.856 43.4187 291.652C43.192 292.786 40.9248 328.834 33.8966 313.644Z" fill="black"/>
<path fill-rule="evenodd" clip-rule="evenodd" d="M44.0955 317.846C47.2704 315.192 49.304 311.065 50.1941 308.061L51.1529 308.345C50.2294 311.462 48.114 315.791 44.7367 318.613C43.041 320.03 41.0163 321.075 38.6609 321.381C36.3034 321.687 33.6548 321.247 30.7227 319.758L31.1755 318.866C33.9567 320.279 36.4036 320.666 38.5322 320.389C40.663 320.113 42.5152 319.166 44.0955 317.846Z" fill="white"/>
<path fill-rule="evenodd" clip-rule="evenodd" d="M75.895 240.07C76.2209 243.755 78.1672 247.766 79.8825 250.339L79.0505 250.894C77.2894 248.252 75.2455 244.078 74.8989 240.158C74.7249 238.19 74.9751 236.247 75.9448 234.594C76.9204 232.931 78.5899 231.621 81.1382 230.866L81.4223 231.825C79.0734 232.521 77.6331 233.693 76.8073 235.1C75.9755 236.518 75.7327 238.234 75.895 240.07Z" fill="white"/>
<path fill-rule="evenodd" clip-rule="evenodd" d="M504.935 226.907C502.224 225.465 499.089 224.742 495.8 224.974C491.021 225.31 486.845 227.597 483.994 231.002C478.219 234.035 474.476 240.28 474.964 247.204C475.323 252.299 477.897 256.708 481.679 259.556C479.386 262.68 478.147 266.602 478.44 270.77C478.673 274.074 479.838 277.09 481.66 279.579C480.205 282.299 479.474 285.448 479.707 288.752C480.05 293.63 482.425 297.879 485.946 300.732C483.918 303.754 482.843 307.449 483.118 311.361C483.482 316.535 486.132 321.002 490.012 323.846C486.569 326.858 484.528 331.391 484.874 336.306C485.461 344.644 492.697 350.928 501.035 350.34C501.955 350.276 502.849 350.13 503.713 349.911C506.204 351.049 509.008 351.598 511.933 351.392C521.27 350.734 528.307 342.632 527.649 333.294C527.344 328.956 525.431 325.115 522.534 322.311C523.475 319.991 523.915 317.426 523.727 314.76C523.561 312.402 522.92 310.19 521.904 308.212C522.632 306.111 522.957 303.831 522.791 301.473C522.556 298.134 521.369 295.089 519.513 292.585C520.66 290.471 521.368 288.093 521.524 285.583C521.619 285.592 521.714 285.6 521.809 285.607C522.81 290.644 526.018 294.818 530.324 297.168C528.089 300.271 526.886 304.145 527.176 308.258C527.539 313.411 530.169 317.864 534.024 320.709C532.046 323.709 531.002 327.359 531.274 331.22C531.932 340.557 540.034 347.594 549.372 346.936C551.213 346.806 552.965 346.387 554.586 345.726C556.285 346.154 558.079 346.324 559.921 346.194C561.453 346.086 562.923 345.778 564.307 345.297C565.556 345.542 566.85 345.649 568.172 345.602C570.811 346.935 573.832 347.596 576.996 347.373C586.333 346.715 593.369 338.613 592.712 329.275C592.456 325.648 591.077 322.368 588.939 319.751C592.212 316.408 594.093 311.734 593.739 306.7C593.501 303.332 592.296 300.264 590.413 297.747C590.576 297.523 590.734 297.294 590.887 297.062C594.137 293.856 596.08 289.363 595.932 284.485C595.939 284.46 595.946 284.435 595.952 284.41C596.186 284.403 596.421 284.391 596.656 284.374C605.994 283.717 613.05 275.894 612.417 266.901C612.12 262.693 610.193 258.975 607.269 256.276C609.857 253.175 611.291 249.168 610.99 244.898C610.357 235.905 602.274 229.148 592.936 229.806C592.374 229.845 591.821 229.911 591.276 230.001C588.169 224.712 582.092 221.335 575.363 221.809C566.025 222.467 558.969 230.29 559.603 239.283C559.957 244.315 562.644 248.647 566.579 251.372C563.076 254.62 561.031 259.278 561.385 264.301C561.553 266.692 562.248 268.924 563.353 270.901C562.961 272.92 562.796 275.052 562.891 277.25C561.59 274.247 559.451 271.713 556.788 269.921C556.954 268.752 557 267.549 556.914 266.324C556.448 259.713 552.251 254.256 546.526 251.865C544.375 244.321 537.175 239.05 529.037 239.623C528.391 239.669 527.755 239.75 527.133 239.865C525.6 231.481 517.972 225.414 509.272 226.026C507.758 226.133 506.305 226.435 504.935 226.907Z" fill="black"/>
<path d="M607.797 290.682C608.64 302.657 601.754 312.898 592.417 313.555C583.079 314.213 574.826 305.038 573.983 293.064C573.14 281.089 580.026 270.848 589.363 270.191C598.7 269.533 606.953 278.708 607.797 290.682Z" fill="black"/>
<path d="M605.797 321.682C606.64 333.657 599.754 343.898 590.417 344.555C581.079 345.213 572.826 336.038 571.983 324.064C571.14 312.089 578.026 301.848 587.363 301.191C596.7 300.533 604.953 309.708 605.797 321.682Z" fill="black"/>
<path fill-rule="evenodd" clip-rule="evenodd" d="M535.779 259.555L534.732 255.605L536.583 255.114L537.63 259.065L535.779 259.555Z" fill="white"/>
<path fill-rule="evenodd" clip-rule="evenodd" d="M502.114 291.714L504.675 285.252L506.455 285.957L503.894 292.42L502.114 291.714Z" fill="white"/>
<path fill-rule="evenodd" clip-rule="evenodd" d="M490.94 259.197L490.663 252.251L492.576 252.175L492.854 259.121L490.94 259.197Z" fill="white"/>
<path fill-rule="evenodd" clip-rule="evenodd" d="M550.383 333.244L550.147 327.329L552.061 327.252L552.297 333.168L550.383 333.244Z" fill="white"/>
<path fill-rule="evenodd" clip-rule="evenodd" d="M590.545 271.221L585.543 274.389L584.519 272.771L589.52 269.603L590.545 271.221Z" fill="white"/>
<path fill-rule="evenodd" clip-rule="evenodd" d="M585.568 307.415L588.944 312.279L587.371 313.371L583.995 308.507L585.568 307.415Z" fill="white"/>
<path fill-rule="evenodd" clip-rule="evenodd" d="M500.864 337.497L499.804 331.672L501.688 331.329L502.748 337.154L500.864 337.497Z" fill="white"/>
<path d="M483.737 314.992C477.807 302.176 477.293 281.492 477.799 272.019C477.825 271.533 478.032 271.079 478.376 270.735L485.982 263.13C487.117 261.995 489.057 262.587 489.356 264.163C491.328 274.569 494.228 290.295 494.054 291.166C493.808 292.394 491.352 331.449 483.737 314.992Z" fill="black"/>
<path fill-rule="evenodd" clip-rule="evenodd" d="M481.095 272.165C484.116 270.383 486.743 267.354 488.233 265.099L489.068 265.65C487.528 267.98 484.8 271.141 481.603 273.027C480.001 273.972 478.253 274.613 476.461 274.644C474.656 274.674 472.843 274.085 471.133 272.633L471.78 271.871C473.312 273.171 474.89 273.67 476.444 273.644C478.01 273.617 479.588 273.054 481.095 272.165Z" fill="white"/>
<path fill-rule="evenodd" clip-rule="evenodd" d="M529.199 235.283C529.553 239.286 531.666 243.638 533.526 246.428L532.694 246.983C530.788 244.124 528.578 239.609 528.203 235.371C528.015 233.245 528.286 231.149 529.33 229.368C530.381 227.577 532.18 226.163 534.933 225.348L535.217 226.306C532.664 227.063 531.094 228.339 530.193 229.874C529.286 231.42 529.023 233.288 529.199 235.283Z" fill="white"/>
<path fill-rule="evenodd" clip-rule="evenodd" d="M191.456 140.478L193.703 135L195.475 135.727L193.228 141.204L191.456 140.478Z" fill="white"/>
<path fill-rule="evenodd" clip-rule="evenodd" d="M142.573 124.587L138.457 120.331L139.833 119L143.949 123.255L142.573 124.587Z" fill="white"/>
<path fill-rule="evenodd" clip-rule="evenodd" d="M198.973 48.0963C199.568 53.5458 201.613 59.859 203.323 64.0123L202.398 64.393C200.67 60.1947 198.588 53.7842 197.979 48.2048C197.675 45.4203 197.732 42.7902 198.421 40.7346C199.12 38.6506 200.487 37.1262 202.767 36.6919L202.954 37.6742C201.108 38.026 199.981 39.2281 199.369 41.0527C198.748 42.9058 198.675 45.3663 198.973 48.0963Z" fill="white"/>
<path fill-rule="evenodd" clip-rule="evenodd" d="M399.62 55.4855C399.62 57.0215 399.429 58.5115 399.07 59.9314C399.394 60.3358 399.702 60.7554 399.99 61.1892C407.383 63.0907 412.86 69.9933 412.86 78.2174C412.86 79.2978 412.766 80.3554 412.585 81.3819C418.399 84.0797 422.432 89.9696 422.432 96.8013C422.432 102.697 419.429 107.891 414.869 110.937C414.912 111.431 414.934 111.93 414.934 112.434L414.934 112.525L414.933 112.596C418.915 115.705 421.475 120.551 421.475 125.994C421.475 135.377 413.868 142.983 404.485 142.983C404.295 142.983 404.105 142.98 403.916 142.974C403.325 145.198 402.293 147.244 400.92 149.011C400.957 149.469 400.976 149.933 400.976 150.401C400.976 159.784 393.37 167.39 383.987 167.39C383.476 167.39 382.971 167.367 382.471 167.323C382.055 167.36 381.635 167.382 381.212 167.388C378.122 170.586 373.789 172.574 368.992 172.574C365.595 172.574 362.43 171.577 359.776 169.86C358.814 170.05 357.824 170.158 356.812 170.178C353.712 174.298 348.781 176.961 343.229 176.961C334.57 176.961 327.425 170.484 326.373 162.111C325.871 161.299 325.436 160.441 325.075 159.546C317.52 157.821 311.883 151.061 311.883 142.983L311.883 142.842C309.428 140.407 307.713 137.228 307.103 133.671C302.264 130.677 299.041 125.322 299.041 119.214C299.041 113.179 302.188 107.878 306.931 104.865C307.083 103.218 307.471 101.639 308.06 100.162C305.094 97.0034 303.268 92.6958 303.268 87.9478C303.268 81.7255 306.404 76.2596 311.132 73.1439C310.996 72.2499 310.926 71.3336 310.926 70.4002C310.926 62.0806 316.531 55.1134 324.054 53.3078C326.749 47.2942 332.643 43.1225 339.48 43.1225C343.17 43.1225 346.585 44.3373 349.37 46.4009C352.156 44.3373 355.571 43.1225 359.261 43.1225C362.629 43.1225 365.769 44.1351 368.41 45.8816C371.444 41.0978 376.68 37.938 382.631 37.938C392.014 37.938 399.62 45.7943 399.62 55.4855ZM377.871 99.7458C375.129 96.6296 373.458 92.4903 373.458 87.9478C373.458 86.4308 373.645 84.9588 373.995 83.5549C373.155 82.6907 372.401 81.7362 371.75 80.7067C368.97 82.7552 365.568 83.9602 361.893 83.9602C358.871 83.9602 356.033 83.1452 353.574 81.7164C351.696 84.593 349.013 86.8635 345.859 88.184C345.793 93.3797 343.54 98.0305 340.008 101.2C340.546 102.854 340.836 104.619 340.836 106.452C340.836 107.883 340.659 109.272 340.326 110.6C340.659 111.927 340.836 113.317 340.836 114.748C340.836 116.52 340.564 118.229 340.061 119.835C341.468 122.31 342.272 125.172 342.272 128.222C342.272 129.526 342.125 130.795 341.847 132.015C343.005 133.384 343.951 134.939 344.633 136.629C344.898 136.69 345.162 136.757 345.422 136.83C346.881 136.421 348.419 136.203 350.008 136.203C351.113 136.203 352.193 136.309 353.239 136.51C354.285 136.309 355.365 136.203 356.469 136.203C358.628 136.203 360.693 136.606 362.592 137.34C365.009 135.328 367.993 133.973 371.269 133.551C373.069 127.753 377.892 123.285 383.895 121.989C382.04 119.267 380.956 115.977 380.956 112.434C380.956 109.766 381.571 107.24 382.668 104.993C380.74 103.607 379.103 101.819 377.871 99.7458Z" fill="black"/>
<path fill-rule="evenodd" clip-rule="evenodd" d="M320.568 99.7932L322.817 95.8772L324.478 96.8311L322.228 100.747L320.568 99.7932Z" fill="white"/>
<path fill-rule="evenodd" clip-rule="evenodd" d="M401.033 131.76L403.922 128.289L405.394 129.514L402.504 132.985L401.033 131.76Z" fill="white"/>
<path fill-rule="evenodd" clip-rule="evenodd" d="M388.418 86.4018L388.095 81.8974L390.005 81.7603L390.328 86.2647L388.418 86.4018Z" fill="white"/>
<path fill-rule="evenodd" clip-rule="evenodd" d="M394.742 156.469C391.114 151.584 390.205 145.438 390.46 141.27L392.421 141.39C392.185 145.245 393.045 150.889 396.319 155.297C399.54 159.634 405.204 162.92 414.926 161.967L415.117 163.923C404.795 164.935 398.423 161.426 394.742 156.469Z" fill="white"/>
<path fill-rule="evenodd" clip-rule="evenodd" d="M315.837 56.1718C320.445 59.498 326.034 61.7892 329.764 62.8719L329.216 64.7591C325.331 63.6311 319.522 61.2553 314.687 57.7652C309.885 54.2996 305.802 49.5542 305.909 43.6558L307.874 43.6915C307.785 48.6009 311.194 52.8211 315.837 56.1718Z" fill="white"/>
<path fill-rule="evenodd" clip-rule="evenodd" d="M449.328 156.37C449.408 154.836 449.677 153.358 450.109 151.959C449.806 151.538 449.521 151.103 449.256 150.655C441.972 148.371 436.861 141.193 437.289 132.98C437.346 131.901 437.495 130.849 437.729 129.834C432.063 126.837 428.343 120.745 428.698 113.923C429.005 108.035 432.275 103.004 436.987 100.199C436.969 99.7045 436.973 99.2048 437 98.701L437.005 98.6103L437.009 98.5395C433.195 95.2272 430.891 90.2552 431.174 84.8195C431.663 75.4493 439.654 68.2493 449.025 68.7378C449.215 68.7477 449.404 68.7607 449.593 68.7768C450.299 66.5859 451.436 64.597 452.899 62.9038C452.886 62.4441 452.891 61.9802 452.916 61.5129C453.404 52.1427 461.396 44.9427 470.766 45.4312C471.276 45.4578 471.78 45.5066 472.276 45.5767C472.693 45.5616 473.114 45.5617 473.538 45.5776C476.789 42.5449 481.22 40.7847 486.011 41.0344C489.403 41.2113 492.511 42.3717 495.073 44.2249C496.043 44.0856 497.037 44.0288 498.049 44.0615C501.36 40.1091 506.422 37.7056 511.967 37.9946C520.614 38.4454 527.413 45.2859 528.027 53.7027C528.486 54.5396 528.876 55.4184 529.19 56.3312C536.645 58.4469 541.922 65.4921 541.502 73.5587L541.494 73.6994C543.819 76.2588 545.367 79.5229 545.791 83.1067C550.467 86.3486 553.407 91.8643 553.089 97.964C552.774 103.991 549.356 109.12 544.463 111.883C544.224 113.52 543.755 115.076 543.09 116.52C545.888 119.829 547.487 124.226 547.239 128.968C546.915 135.182 543.5 140.477 538.616 143.342C538.705 144.242 538.728 145.161 538.679 146.093C538.246 154.401 532.285 161.067 524.679 162.479C521.674 168.344 515.571 172.203 508.743 171.847C505.058 171.655 501.711 170.264 499.037 168.058C496.147 169.974 492.674 171.009 488.989 170.817C485.625 170.642 482.543 169.467 479.996 167.586C476.717 172.205 471.323 175.088 465.381 174.778C456.011 174.29 448.824 166.048 449.328 156.37ZM473.352 113.302C475.928 116.557 477.381 120.777 477.145 125.314C477.066 126.829 476.803 128.289 476.38 129.673C477.174 130.58 477.877 131.572 478.474 132.634C481.356 130.733 484.817 129.707 488.487 129.898C491.505 130.055 494.296 131.017 496.677 132.572C498.703 129.797 501.5 127.669 504.718 126.515C505.055 121.329 507.547 116.802 511.239 113.821C510.789 112.141 510.591 110.363 510.686 108.533C510.761 107.104 511.01 105.725 511.411 104.417C511.148 103.074 511.043 101.677 511.118 100.249C511.21 98.4786 511.57 96.786 512.157 95.208C510.88 92.6638 510.227 89.7637 510.386 86.7179C510.453 85.4157 510.666 84.1555 511.008 82.952C509.922 81.5243 509.058 79.9221 508.465 78.199C508.203 78.1246 507.944 78.0442 507.687 77.9578C506.209 78.2894 504.662 78.4272 503.075 78.3445C501.972 78.287 500.899 78.1255 499.865 77.87C498.81 78.0166 497.726 78.0657 496.623 78.0082C494.467 77.8958 492.426 77.3862 490.567 76.554C488.049 78.4381 484.999 79.6355 481.705 79.8859C479.605 85.5828 474.556 89.7937 468.494 90.775C470.205 93.5903 471.116 96.9319 470.932 100.47C470.793 103.135 470.047 105.625 468.835 107.812C470.688 109.297 472.23 111.168 473.352 113.302Z" fill="black"/>
<path fill-rule="evenodd" clip-rule="evenodd" d="M467.027 66.3902L469.001 62.3287L470.724 63.166L468.749 67.2275L467.027 66.3902Z" fill="white"/>
<path fill-rule="evenodd" clip-rule="evenodd" d="M456.604 153.823L459.725 150.559L461.109 151.883L457.988 155.147L456.604 153.823Z" fill="white"/>
<path fill-rule="evenodd" clip-rule="evenodd" d="M504.65 56.3842L500.211 57.2162L499.858 55.334L504.297 54.502L504.65 56.3842Z" fill="white"/>
<path fill-rule="evenodd" clip-rule="evenodd" d="M465.954 104.493C463.078 102.529 460.847 99.2732 459.66 96.8998L461.418 96.021C462.524 98.2327 464.566 101.166 467.062 102.871C468.298 103.715 469.594 104.223 470.91 104.247C472.208 104.271 473.629 103.827 475.144 102.58L476.393 104.097C474.567 105.601 472.7 106.245 470.874 106.212C469.067 106.179 467.403 105.483 465.954 104.493Z" fill="white"/>
<path fill-rule="evenodd" clip-rule="evenodd" d="M348.151 336.499C348.231 334.965 348.499 333.487 348.931 332.087C348.628 331.667 348.344 331.232 348.078 330.783C340.794 328.5 335.683 321.321 336.112 313.108C336.168 312.029 336.317 310.978 336.551 309.962C330.885 306.966 327.165 300.874 327.521 294.051C327.828 288.164 331.097 283.133 335.809 280.328C335.792 279.833 335.796 279.333 335.822 278.83L335.827 278.739L335.831 278.668C332.017 275.356 329.713 270.384 329.996 264.948C330.485 255.578 338.477 248.378 347.847 248.866C348.037 248.876 348.227 248.889 348.415 248.905C349.122 246.715 350.258 244.726 351.721 243.033C351.708 242.573 351.713 242.109 351.738 241.642C352.226 232.271 360.218 225.071 369.588 225.56C370.098 225.586 370.602 225.635 371.098 225.705C371.516 225.69 371.936 225.69 372.36 225.706C375.611 222.674 380.042 220.913 384.833 221.163C388.226 221.34 391.334 222.5 393.895 224.354C394.865 224.214 395.86 224.157 396.872 224.19C400.182 220.238 405.244 217.834 410.789 218.123C419.436 218.574 426.235 225.415 426.849 233.831C427.308 234.668 427.698 235.547 428.012 236.46C435.467 238.576 440.745 245.621 440.324 253.687L440.316 253.828C442.641 256.387 444.189 259.652 444.613 263.235C449.289 266.477 452.229 271.993 451.911 278.093C451.597 284.12 448.178 289.249 443.285 292.012C443.047 293.649 442.577 295.205 441.912 296.649C444.71 299.958 446.309 304.355 446.062 309.097C445.738 315.31 442.322 320.606 437.438 323.471C437.527 324.371 437.55 325.29 437.501 326.222C437.068 334.53 431.107 341.196 423.501 342.607C420.497 348.473 414.393 352.332 407.565 351.976C403.881 351.784 400.534 350.393 397.859 348.187C394.97 350.103 391.496 351.138 387.811 350.946C384.447 350.771 381.365 349.596 378.818 347.714C375.539 352.334 370.146 355.217 364.203 354.907C354.833 354.418 347.646 346.177 348.151 336.499ZM372.174 293.431C374.75 296.685 376.203 300.906 375.967 305.442C375.888 306.957 375.625 308.418 375.202 309.801C375.996 310.708 376.699 311.701 377.296 312.763C380.179 310.862 383.639 309.835 387.309 310.027C390.327 310.184 393.118 311.146 395.499 312.7C397.525 309.926 400.322 307.798 403.541 306.643C403.877 301.458 406.369 296.931 410.061 293.95C409.611 292.27 409.413 290.492 409.508 288.661C409.583 287.232 409.832 285.854 410.234 284.546C409.97 283.203 409.866 281.806 409.94 280.377C410.032 278.607 410.393 276.915 410.979 275.337C409.703 272.792 409.049 269.892 409.208 266.847C409.276 265.544 409.489 264.284 409.83 263.081C408.744 261.653 407.88 260.051 407.287 258.328C407.025 258.253 406.766 258.173 406.51 258.087C405.032 258.418 403.484 258.556 401.897 258.473C400.794 258.416 399.721 258.254 398.687 257.999C397.632 258.145 396.548 258.194 395.445 258.137C393.289 258.024 391.248 257.515 389.389 256.683C386.871 258.567 383.821 259.764 380.528 260.015C378.428 265.712 373.379 269.922 367.316 270.904C369.027 273.719 369.939 277.061 369.754 280.599C369.615 283.264 368.869 285.754 367.657 287.941C369.51 289.425 371.052 291.296 372.174 293.431Z" fill="black"/>
<path fill-rule="evenodd" clip-rule="evenodd" d="M365.848 246.518L367.823 242.457L369.545 243.294L367.57 247.356L365.848 246.518Z" fill="white"/>
<path fill-rule="evenodd" clip-rule="evenodd" d="M355.426 333.952L358.547 330.688L359.931 332.011L356.81 335.276L355.426 333.952Z" fill="white"/>
<path fill-rule="evenodd" clip-rule="evenodd" d="M403.47 236.513L399.032 237.345L398.679 235.463L403.117 234.631L403.47 236.513Z" fill="white"/>
<path fill-rule="evenodd" clip-rule="evenodd" d="M350.709 240.284C353.686 240.269 356.705 238.942 358.57 237.698L359.66 239.333C357.595 240.71 354.203 242.232 350.719 242.249C348.96 242.258 347.155 241.883 345.497 240.887C343.834 239.889 342.383 238.303 341.279 235.991L343.053 235.145C344.013 237.157 345.22 238.428 346.508 239.203C347.801 239.979 349.238 240.292 350.709 240.284ZM416.035 347.315C414.549 338.4 416.828 327.385 419.347 319.995L421.207 320.628C418.731 327.894 416.565 338.544 417.973 346.991C418.675 351.201 420.246 354.754 422.992 357.108C425.718 359.446 429.75 360.728 435.65 360.109L435.854 362.064C429.571 362.722 424.953 361.378 421.712 358.6C418.492 355.839 416.78 351.786 416.035 347.315Z" fill="white"/>
<path fill-rule="evenodd" clip-rule="evenodd" d="M253.747 221.787C256.065 220.578 258.719 219.891 261.541 219.891C264.524 219.891 267.322 220.659 269.731 222.001C272.14 220.659 274.938 219.891 277.921 219.891C283.726 219.891 288.825 222.798 291.735 227.182C300.511 227.48 307.53 234.424 307.53 242.947C307.53 249.748 303.061 255.544 296.797 257.76C294.658 264.076 288.492 268.64 281.219 268.64C276.043 268.64 271.429 266.329 268.427 262.72C264.982 262.297 261.871 260.843 259.438 258.69C259.09 258.712 258.739 258.722 258.386 258.722C255.674 258.722 253.115 258.088 250.862 256.964C249.493 257.647 248.011 258.149 246.45 258.438C245.541 258.987 244.571 259.453 243.554 259.824C245.333 262.347 246.372 265.393 246.372 268.673C246.372 270.351 246.1 271.967 245.596 273.484C246.205 273.565 246.803 273.678 247.389 273.822C249.447 272.925 251.732 272.425 254.137 272.425C257.232 272.425 260.126 273.251 262.595 274.687C265.233 272.937 268.43 271.913 271.875 271.913C275.17 271.913 278.239 272.85 280.808 274.463C282.692 273.736 284.748 273.336 286.901 273.336C295.949 273.336 303.283 280.398 303.283 289.111C303.283 295.033 299.894 300.193 294.882 302.89C291.914 306.093 287.61 308.122 282.813 308.166C280.765 309.053 278.493 309.547 276.101 309.547C274.353 309.547 272.669 309.283 271.09 308.795C268.648 310.188 265.797 310.988 262.753 310.988C259.592 310.988 256.639 310.125 254.136 308.631C254.113 309.726 253.975 310.794 253.733 311.823C256.306 312.666 258.592 314.108 260.411 315.977C262.643 314.88 265.171 314.261 267.85 314.261C271.956 314.261 275.709 315.716 278.584 318.119C280.345 317.496 282.247 317.156 284.232 317.156C286.499 317.156 288.658 317.6 290.622 318.402C290.797 318.396 290.972 318.394 291.148 318.394C300.196 318.394 307.53 325.456 307.53 334.169C307.53 342.881 300.196 349.944 291.148 349.944C289.402 349.944 287.72 349.68 286.141 349.193C283.144 352.899 278.466 355.282 273.21 355.282C269.31 355.282 265.728 353.969 262.914 351.777C260.686 352.869 258.165 353.485 255.494 353.485C251.285 353.485 247.448 351.957 244.546 349.446C243.236 349.771 241.863 349.944 240.447 349.944C235.177 349.944 230.487 347.547 227.491 343.823C225.601 344.556 223.537 344.959 221.374 344.959C212.327 344.959 204.993 337.897 204.993 329.184C204.993 326.054 205.94 323.136 207.573 320.682C205.94 318.229 204.993 315.311 204.993 312.181C204.993 308.06 206.633 304.309 209.319 301.499C209.266 300.982 209.238 300.456 209.238 299.925C209.238 297.339 209.885 294.898 211.03 292.744C205.652 290.157 201.959 284.805 201.959 278.623C201.959 273.151 204.852 268.33 209.245 265.5C209.241 265.345 209.238 265.189 209.238 265.033C209.238 262.152 210.04 259.451 211.441 257.127C209.094 254.397 207.684 250.893 207.684 247.073C207.684 241.108 211.122 235.916 216.194 233.235C217.992 226.403 224.42 221.348 232.074 221.348C235.359 221.348 238.418 222.279 240.982 223.882C243.546 222.279 246.605 221.348 249.89 221.348C251.219 221.348 252.51 221.5 253.747 221.787Z" fill="black"/>
<path fill-rule="evenodd" clip-rule="evenodd" d="M266.092 302.632L263.338 297.856L264.883 296.965L267.637 301.742L266.092 302.632Z" fill="white"/>
<path fill-rule="evenodd" clip-rule="evenodd" d="M227.932 333.774L230.024 328.673L231.674 329.35L229.582 334.451L227.932 333.774Z" fill="white"/>
<path fill-rule="evenodd" clip-rule="evenodd" d="M228.986 247.37L225.153 243.407L226.435 242.167L230.268 246.131L228.986 247.37Z" fill="white"/>
<path fill-rule="evenodd" clip-rule="evenodd" d="M208.846 293.271C211.454 289.542 212.458 284.57 212.571 281.12L213.57 281.153C213.454 284.718 212.422 289.902 209.666 293.844C208.282 295.823 206.455 297.5 204.082 298.489C201.706 299.478 198.821 299.761 195.351 299.011L195.562 298.033C198.863 298.747 201.537 298.465 203.697 297.566C205.86 296.665 207.548 295.128 208.846 293.271Z" fill="white"/>
<path fill-rule="evenodd" clip-rule="evenodd" d="M245.979 259.305C245.614 256.783 246.493 253.819 247.387 251.876L248.295 252.294C247.435 254.164 246.644 256.919 246.969 259.162C247.129 260.27 247.556 261.217 248.344 261.892C249.133 262.567 250.347 263.023 252.187 263.023V264.023C250.185 264.023 248.714 263.525 247.694 262.652C246.673 261.778 246.164 260.581 245.979 259.305Z" fill="white"/>
<path fill-rule="evenodd" clip-rule="evenodd" d="M280.696 222.808C277.149 226.723 275.632 231.994 275.334 235.655L274.337 235.574C274.648 231.762 276.22 226.259 279.955 222.137C283.719 217.982 289.638 215.281 298.495 217.052L298.299 218.033C289.771 216.327 284.214 218.926 280.696 222.808Z" fill="white"/>
</svg>
