<svg width="741" height="371" viewBox="0 0 741 371" fill="none" xmlns="http://www.w3.org/2000/svg">
<path fill-rule="evenodd" clip-rule="evenodd" d="M112.139 21.0647C117.647 21.9661 122.397 25.1223 125.409 29.5544C127.594 28.7324 129.962 28.2828 132.434 28.2828C143.456 28.2828 152.391 37.2178 152.391 48.2397C152.391 48.5079 152.386 48.7749 152.375 49.0406C158.172 52.5325 162.049 58.8874 162.049 66.1479C162.049 77.1698 153.114 86.1049 142.092 86.1049C135.259 86.1049 129.228 82.6704 125.631 77.4335C122.496 79.4819 118.751 80.6726 114.727 80.6726C110.64 80.6726 106.84 79.4443 103.677 77.3366C100.996 78.6756 97.9713 79.429 94.7709 79.429C87.5276 79.429 81.1856 75.5702 77.6885 69.7962C77.6984 70.0546 77.7034 70.3143 77.7034 70.5751C77.7034 78.9133 72.5898 86.0571 65.3277 89.0417C65.5026 90.1043 65.5936 91.1953 65.5936 92.3075C65.5936 98.6566 62.6287 104.313 58.008 107.968C64.2493 111.017 68.6642 117.227 69.1683 124.513C72.2756 127.709 74.3211 131.944 74.7358 136.646C76.7681 135.948 78.9486 135.57 81.2175 135.57C85.3069 135.57 89.109 136.8 92.2741 138.91C95.8951 135.224 100.937 132.937 106.512 132.937C109.285 132.937 111.925 133.502 114.324 134.524C116.123 133.758 118.057 133.249 120.08 133.042C120.063 132.852 120.048 132.661 120.036 132.47C115.572 131.486 111.67 129.009 108.879 125.588C99.5744 123.894 92.5202 115.748 92.5202 105.955C92.5202 94.9329 101.455 85.9979 112.477 85.9979C112.645 85.9979 112.813 86 112.981 86.0041C113.148 86 113.316 85.9979 113.484 85.9979C117.72 85.9979 121.648 87.3175 124.878 89.568C127.473 88.3338 130.376 87.643 133.44 87.643C142.418 87.643 150.012 93.5714 152.519 101.727C162.322 102.993 169.896 111.371 169.896 121.519C169.896 125.995 168.422 130.127 165.934 133.456C167.274 136.138 168.028 139.164 168.028 142.366C168.028 148.849 164.937 154.61 160.149 158.256C160.047 159.326 159.861 160.373 159.597 161.388C159.802 162.533 159.908 163.712 159.908 164.915C159.908 175.937 150.973 184.872 139.951 184.872C137.194 184.872 134.567 184.313 132.179 183.302C128.604 186.678 123.783 188.747 118.478 188.747C113.356 188.747 108.684 186.817 105.151 183.645C101.617 186.817 96.9458 188.747 91.8234 188.747C90.3317 188.747 88.8782 188.584 87.48 188.273C84.0343 191.107 79.6223 192.808 74.813 192.808C65.6658 192.808 57.956 186.654 55.5979 178.26C55.0221 178.31 54.4393 178.336 53.8505 178.336C42.8286 178.336 33.8936 169.401 33.8936 158.379C33.8936 157.366 33.969 156.371 34.1145 155.399C24.1597 154.274 16.4238 145.825 16.4238 135.57C16.4238 129.753 18.9124 124.517 22.8829 120.87C19.7414 117.343 17.8325 112.694 17.8325 107.6C17.8325 101.414 20.647 95.8853 25.0653 92.2247C20.647 88.5641 17.8325 83.0355 17.8325 76.8495C17.8325 68.0884 23.478 60.6458 31.3296 57.9612C28.9158 54.6614 27.4907 50.5926 27.4907 46.1909C27.4907 35.169 36.4258 26.234 47.4477 26.234C53.4233 26.234 58.7855 28.8603 62.443 33.0216C62.8521 32.8021 63.2697 32.5964 63.6952 32.4052C65.7469 23.5657 73.672 16.9785 83.1357 16.9785C86.1565 16.9785 89.0206 17.6497 91.5869 18.851C94.1532 17.6497 97.0173 16.9785 100.038 16.9785C104.588 16.9785 108.782 18.5012 112.139 21.0647Z" fill="black"/>
<path fill-rule="evenodd" clip-rule="evenodd" d="M50.2082 170.446L46.7764 164.317L48.4473 163.381L51.8791 169.51L50.2082 170.446Z" fill="white"/>
<path fill-rule="evenodd" clip-rule="evenodd" d="M40.2505 74.3026L40.4816 67.2822L42.3955 67.3452L42.1645 74.3656L40.2505 74.3026Z" fill="white"/>
<path fill-rule="evenodd" clip-rule="evenodd" d="M84.9866 67.296L78.6378 64.2909L79.457 62.5601L85.8059 65.5651L84.9866 67.296Z" fill="white"/>
<path fill-rule="evenodd" clip-rule="evenodd" d="M16.3519 101.344C22.2825 98.8093 28.3141 93.2272 32.0603 88.8296L32.8215 89.4781C29.0349 93.9232 22.8831 99.6402 16.745 102.264C13.6724 103.577 10.5433 104.141 7.698 103.313C4.83229 102.479 2.35612 100.264 0.543945 96.2367L1.45587 95.8264C3.1808 99.6595 5.46171 101.62 7.9774 102.352C10.5135 103.09 13.3901 102.61 16.3519 101.344Z" fill="white"/>
<path fill-rule="evenodd" clip-rule="evenodd" d="M74.9368 24.2442C77.1414 30.2022 82.2606 36.329 86.3305 40.1546L85.6456 40.8833C81.5277 37.0124 76.2812 30.7593 73.9989 24.5912C72.8564 21.5034 72.436 18.3809 73.3346 15.5745C74.2395 12.7484 76.4521 10.3337 80.3843 8.61963L80.7839 9.53632C77.0524 11.1629 75.0852 13.3865 74.287 15.8794C73.4825 18.392 73.8359 21.2691 74.9368 24.2442Z" fill="white"/>
<path fill-rule="evenodd" clip-rule="evenodd" d="M100.955 195.053C102.87 187.861 103.337 178.312 103.174 171.699L104.174 171.675C104.338 178.327 103.872 187.986 101.922 195.311C100.95 198.961 99.5896 202.112 97.689 204C96.7294 204.953 95.6192 205.598 94.3457 205.805C93.0729 206.012 91.6879 205.774 90.1924 205.052L90.6271 204.152C91.981 204.805 93.1577 204.985 94.1851 204.818C95.2119 204.651 96.1404 204.129 96.9842 203.291C98.6903 201.596 99.9951 198.661 100.955 195.053Z" fill="white"/>
<path fill-rule="evenodd" clip-rule="evenodd" d="M694.289 230.428C698.161 231.061 701.5 233.28 703.618 236.396C705.154 235.819 706.818 235.503 708.556 235.503C716.305 235.503 722.586 241.784 722.586 249.532C722.586 249.721 722.583 249.909 722.575 250.095C726.651 252.55 729.377 257.018 729.377 262.122C729.377 269.871 723.095 276.152 715.347 276.152C710.542 276.152 706.302 273.737 703.774 270.056C701.57 271.495 698.937 272.333 696.108 272.333C693.235 272.333 690.564 271.469 688.34 269.987C686.455 270.929 684.328 271.459 682.078 271.459C676.987 271.459 672.529 268.746 670.07 264.688C670.077 264.869 670.08 265.051 670.08 265.234C670.08 271.096 666.485 276.118 661.38 278.216C661.503 278.963 661.567 279.73 661.567 280.512C661.567 284.975 659.482 288.952 656.234 291.522C660.622 293.665 663.725 298.031 664.079 303.153C666.264 305.401 667.702 308.377 667.993 311.683C669.422 311.192 670.955 310.926 672.55 310.926C675.425 310.926 678.098 311.791 680.324 313.275C682.869 310.683 686.414 309.075 690.334 309.075C692.283 309.075 694.139 309.472 695.825 310.19C697.09 309.652 698.449 309.294 699.871 309.148C699.859 309.015 699.848 308.881 699.84 308.747C696.702 308.055 693.958 306.313 691.996 303.909C685.456 302.717 680.497 296.991 680.497 290.106C680.497 282.358 686.778 276.076 694.527 276.076C694.645 276.076 694.763 276.078 694.881 276.081C694.998 276.078 695.116 276.076 695.234 276.076C698.212 276.076 700.973 277.004 703.245 278.586C705.069 277.718 707.11 277.233 709.264 277.233C715.576 277.233 720.914 281.401 722.677 287.135C729.568 288.025 734.892 293.915 734.892 301.048C734.892 304.195 733.856 307.099 732.106 309.44C733.049 311.325 733.579 313.453 733.579 315.704C733.579 320.262 731.406 324.312 728.039 326.875C727.968 327.627 727.837 328.362 727.652 329.074C727.796 329.88 727.871 330.709 727.871 331.556C727.871 339.305 721.589 345.586 713.841 345.586C711.903 345.586 710.056 345.193 708.377 344.482C705.864 346.856 702.474 348.311 698.745 348.311C695.144 348.311 691.86 346.954 689.376 344.724C686.892 346.954 683.608 348.311 680.007 348.311C678.958 348.311 677.936 348.195 676.953 347.977C674.53 349.969 671.429 351.165 668.048 351.165C661.618 351.165 656.198 346.838 654.54 340.938C654.135 340.973 653.725 340.991 653.31 340.991C645.562 340.991 639.28 334.71 639.28 326.961C639.28 326.249 639.333 325.55 639.436 324.867C632.438 324.075 627 318.136 627 310.926C627 306.837 628.75 303.156 631.541 300.592C629.332 298.113 627.99 294.844 627.99 291.263C627.99 286.914 629.969 283.027 633.075 280.454C629.969 277.88 627.99 273.994 627.99 269.645C627.99 263.486 631.959 258.254 637.479 256.366C635.782 254.047 634.78 251.186 634.78 248.092C634.78 240.344 641.062 234.062 648.81 234.062C653.011 234.062 656.781 235.909 659.352 238.834C659.639 238.68 659.933 238.535 660.232 238.401C661.674 232.186 667.246 227.555 673.899 227.555C676.023 227.555 678.036 228.027 679.84 228.872C681.645 228.027 683.658 227.555 685.782 227.555C688.98 227.555 691.929 228.626 694.289 230.428Z" fill="black"/>
<path fill-rule="evenodd" clip-rule="evenodd" d="M703.789 336.711L705.953 332.272L707.163 332.862L704.999 337.3L703.789 336.711Z" fill="white"/>
<path fill-rule="evenodd" clip-rule="evenodd" d="M650.751 335.444L648.338 331.135L649.513 330.478L651.925 334.786L650.751 335.444Z" fill="white"/>
<path fill-rule="evenodd" clip-rule="evenodd" d="M643.75 267.854L643.912 262.918L645.258 262.963L645.095 267.898L643.75 267.854Z" fill="white"/>
<path fill-rule="evenodd" clip-rule="evenodd" d="M668.275 232.61C669.814 236.768 673.394 241.056 676.248 243.739L675.563 244.467C672.661 241.74 668.953 237.325 667.337 232.957C666.528 230.77 666.223 228.538 666.868 226.522C667.52 224.485 669.112 222.759 671.906 221.542L672.306 222.458C669.712 223.589 668.366 225.124 667.821 226.827C667.269 228.549 667.508 230.536 668.275 232.61Z" fill="white"/>
<path fill-rule="evenodd" clip-rule="evenodd" d="M686.284 352.704C687.624 347.668 687.953 340.971 687.838 336.328L688.838 336.303C688.954 340.986 688.626 347.792 687.25 352.961C686.565 355.535 685.6 357.781 684.235 359.138C683.544 359.825 682.736 360.296 681.804 360.447C680.873 360.599 679.868 360.423 678.796 359.906L679.231 359.005C680.161 359.454 680.958 359.572 681.644 359.46C682.329 359.349 682.955 359 683.531 358.428C684.701 357.265 685.61 355.234 686.284 352.704Z" fill="white"/>
<path fill-rule="evenodd" clip-rule="evenodd" d="M253.758 55.9055C251.229 51.7726 246.673 49.0146 241.473 49.0146C237.363 49.0146 233.655 50.7378 231.032 53.5012C228.524 51.3769 225.279 50.0958 221.735 50.0958C216.256 50.0958 211.491 53.1584 209.06 57.6652C206.301 55.9799 203.058 55.0087 199.588 55.0087C189.537 55.0087 181.389 63.1568 181.389 73.2079C181.389 75.8753 181.962 78.4087 182.993 80.6913C180.8 83.6972 179.506 87.4008 179.506 91.4066C179.506 96.4455 181.554 101.006 184.863 104.302C183.898 106.522 183.363 108.972 183.363 111.548C183.363 111.822 183.369 112.094 183.381 112.365C183.369 112.636 183.363 112.908 183.363 113.182C183.363 117.732 185.033 121.893 187.793 125.083C187.581 125.66 187.397 126.25 187.242 126.852C184.593 129.299 182.673 132.523 181.844 136.162C180.355 138.8 179.506 141.847 179.506 145.091C179.506 147.353 179.919 149.519 180.673 151.517C178.874 154.339 177.832 157.69 177.832 161.285C177.832 171.336 185.98 179.484 196.031 179.484C206.082 179.484 214.23 171.336 214.23 161.285C214.23 159.939 214.084 158.627 213.807 157.364C216.298 154.251 217.787 150.301 217.787 146.004C217.787 145.424 217.76 144.851 217.707 144.285C220.045 141.96 221.755 139.003 222.559 135.692C223.981 136.162 225.502 136.417 227.082 136.417C228.487 136.417 229.846 136.215 231.13 135.84C232.101 136.843 233.217 137.705 234.443 138.393C234.253 139.327 234.153 140.294 234.153 141.284C234.153 145.155 235.681 148.669 238.167 151.256C237.714 152.655 237.468 154.148 237.468 155.699C237.468 161.462 240.857 166.435 245.75 168.733C247.375 174.9 252.99 179.447 259.668 179.447C259.876 179.447 260.083 179.442 260.289 179.434C260.692 179.467 261.099 179.485 261.51 179.485C269.458 179.485 275.902 173.041 275.902 165.093C275.902 164.133 275.808 163.195 275.629 162.288C275.808 161.381 275.902 160.443 275.902 159.484C275.902 155.298 274.115 151.529 271.262 148.899C271.279 148.61 271.288 148.318 271.288 148.025C271.288 145.299 270.53 142.751 269.214 140.578C269.887 138.913 270.258 137.094 270.258 135.188C270.258 132.467 269.502 129.922 268.19 127.751C271.642 125.528 274.155 121.635 274.885 117.035C282.449 116.607 288.451 110.337 288.451 102.666C288.451 100.87 288.122 99.1503 287.521 97.5648C287.675 96.7226 287.755 95.8549 287.755 94.9685C287.755 88.5748 283.585 83.1549 277.817 81.2793C278.768 79.3577 279.303 77.1934 279.303 74.9042C279.303 67.5455 273.78 61.4768 266.653 60.6168C264.016 57.6334 260.161 55.7522 255.866 55.7522C255.15 55.7522 254.446 55.8045 253.758 55.9055ZM219.667 109.688C221.833 108.383 224.37 107.633 227.082 107.633C231.141 107.633 234.808 109.314 237.425 112.018C238.155 111.804 238.91 111.646 239.684 111.55C240.787 107.515 243.603 104.187 247.301 102.396C247.638 101.534 248.056 100.712 248.545 99.9407L248.545 99.8805C248.545 99.011 248.622 98.1594 248.77 97.3324C247.932 96.0901 247.283 94.7099 246.864 93.2332C244.331 93.0499 241.98 92.211 239.979 90.8854C238.753 91.2251 237.461 91.4065 236.128 91.4065C232.387 91.4065 228.98 89.9798 226.421 87.6409C225.539 90.8203 223.816 93.6498 221.506 95.8745C221.657 96.8193 221.736 97.7884 221.736 98.7758C221.736 102.043 220.874 105.11 219.367 107.761C219.5 108.392 219.601 109.034 219.667 109.688Z" fill="black"/>
<path fill-rule="evenodd" clip-rule="evenodd" d="M262.5 149.597L265.606 143.296L267.323 144.143L264.218 150.443L262.5 149.597Z" fill="white"/>
<path fill-rule="evenodd" clip-rule="evenodd" d="M185.705 168.038L182.942 161.58L184.703 160.827L187.466 167.285L185.705 168.038Z" fill="white"/>
<path fill-rule="evenodd" clip-rule="evenodd" d="M192.154 73.4404L194.837 70.3579L196.281 71.6152L193.598 74.6977L192.154 73.4404Z" fill="white"/>
<path fill-rule="evenodd" clip-rule="evenodd" d="M263.061 125.091L262.014 121.14L263.865 120.65L264.912 124.6L263.061 125.091Z" fill="white"/>
<path fill-rule="evenodd" clip-rule="evenodd" d="M279.226 106.556L280.521 102.68L282.337 103.287L281.042 107.163L279.226 106.556Z" fill="white"/>
<path fill-rule="evenodd" clip-rule="evenodd" d="M266.028 74.2347L267.323 70.3586L269.14 70.9653L267.845 74.8414L266.028 74.2347Z" fill="white"/>
<path fill-rule="evenodd" clip-rule="evenodd" d="M199.517 56.0963C200.112 61.5458 202.157 67.859 203.867 72.0123L202.942 72.393C201.214 68.1947 199.132 61.7842 198.523 56.2048C198.219 53.4203 198.276 50.7902 198.965 48.7346C199.664 46.6506 201.031 45.1262 203.311 44.6919L203.498 45.6742C201.652 46.026 200.525 47.2281 199.913 49.0527C199.292 50.9058 199.219 53.3663 199.517 56.0963Z" fill="white"/>
<path d="M613.38 12.5199C626.347 2.03175 638.17 0.204271 642.46 0.601548C676.07 -6.07273 706.104 44.6994 706.581 58.5246C707.058 72.3499 688.703 67.8209 687.273 72.1115C685.843 76.4021 733.278 106.675 733.755 113.826C734.231 120.977 726.842 128.366 727.796 143.622C728.749 158.877 739.237 162.691 740.191 165.551C741.144 168.412 585.967 181.76 587.636 162.691C589.305 143.622 601.7 156.97 590.973 143.622C580.247 130.273 599.316 115.256 590.973 102.384C582.63 89.5123 603.368 82.1229 601.7 72.1115C600.031 62.1001 589.543 67.5826 583.584 55.4259C577.625 43.2692 597.171 25.63 613.38 12.5199Z" fill="black"/>
<path fill-rule="evenodd" clip-rule="evenodd" d="M631.896 36.0656C636.39 32.1086 640.055 27.7712 642.043 25.0039L643.592 26.1164C641.528 28.9904 637.768 33.4369 633.156 37.4969C628.56 41.5435 623.026 45.2887 617.415 46.6295L616.972 44.7748C622.134 43.5412 627.387 40.0361 631.896 36.0656Z" fill="white"/>
<path fill-rule="evenodd" clip-rule="evenodd" d="M658.702 29.2644C649.32 24.3267 647.687 17.1161 648.192 13.8535L650.077 14.1455C649.708 16.5242 650.856 22.98 659.59 27.5769L658.702 29.2644Z" fill="white"/>
<path fill-rule="evenodd" clip-rule="evenodd" d="M660.722 37.3503C658.039 31.0296 657.854 24.433 658.513 20.2539L660.396 20.5508C659.784 24.4365 659.956 30.664 662.478 36.6053C664.984 42.5107 669.812 48.145 678.577 50.9589L677.994 52.7746C668.643 49.7724 663.42 43.7068 660.722 37.3503Z" fill="white"/>
<path fill-rule="evenodd" clip-rule="evenodd" d="M676.608 15.1278C672.677 14.7647 668.501 13.1296 665.855 11.7457L666.739 10.0559C669.258 11.3735 673.187 12.8967 676.784 13.2289C678.58 13.3948 680.22 13.2565 681.544 12.7118C682.836 12.1802 683.867 11.2486 684.481 9.7124L686.252 10.4206C685.436 12.4599 684.014 13.758 682.269 14.4754C680.557 15.1796 678.577 15.3095 676.608 15.1278Z" fill="white"/>
<path fill-rule="evenodd" clip-rule="evenodd" d="M609.61 10.8657C614.965 10.3405 621.106 9.92844 625.127 9.70947L625.231 11.6136C621.227 11.8316 615.115 12.2419 609.796 12.7635C607.134 13.0245 604.685 13.3121 602.802 13.6152C601.859 13.767 601.076 13.9201 600.485 14.0714C600.19 14.1471 599.958 14.2186 599.786 14.284C599.622 14.3462 599.555 14.3869 599.545 14.3931C599.544 14.394 599.543 14.3942 599.544 14.3937L598.373 12.8885C598.592 12.7179 598.862 12.5948 599.109 12.501C599.371 12.4017 599.677 12.3101 600.012 12.2242C600.683 12.0522 601.531 11.8885 602.499 11.7325C604.44 11.4201 606.934 11.1281 609.61 10.8657Z" fill="white"/>
<path fill-rule="evenodd" clip-rule="evenodd" d="M587.92 41.6963C590.457 41.1711 592.785 39.9903 594.132 39.0737L595.205 40.6502C593.691 41.6803 591.133 42.9785 588.306 43.5637C585.482 44.1484 582.246 44.0461 579.561 42.0586L580.695 40.5257C582.776 42.0661 585.381 42.222 587.92 41.6963Z" fill="white"/>
<path fill-rule="evenodd" clip-rule="evenodd" d="M608.548 80.3369C610.726 74.6758 614.495 69.2325 617.302 65.9404L618.753 67.1778C616.038 70.3613 612.406 75.6206 610.327 81.0218C608.226 86.4817 607.844 91.7125 610.992 95.2437L609.569 96.5127C605.662 92.1301 606.392 85.9392 608.548 80.3369Z" fill="white"/>
<path fill-rule="evenodd" clip-rule="evenodd" d="M589.892 102.225C592.056 100.032 593.605 96.7613 594.354 94.3979L596.172 94.9743C595.372 97.4975 593.703 101.079 591.249 103.565C590.015 104.815 588.537 105.833 586.826 106.255C585.092 106.682 583.205 106.474 581.228 105.42L582.125 103.737C583.723 104.589 585.129 104.709 586.37 104.403C587.635 104.091 588.817 103.314 589.892 102.225Z" fill="white"/>
<path fill-rule="evenodd" clip-rule="evenodd" d="M592.884 141.988C595.3 138.94 597.381 134.839 598.554 131.986L600.318 132.711C599.107 135.657 596.945 139.935 594.379 143.172C593.099 144.786 591.669 146.206 590.151 147.05C588.607 147.908 586.889 148.206 585.196 147.39L586.024 145.672C587.001 146.143 588.049 146.037 589.225 145.383C590.427 144.715 591.673 143.516 592.884 141.988Z" fill="white"/>
<path fill-rule="evenodd" clip-rule="evenodd" d="M601.261 160.548L608.531 149.464L610.125 150.51L602.855 161.594L601.261 160.548Z" fill="white"/>
<path fill-rule="evenodd" clip-rule="evenodd" d="M674.682 92.877C671.524 88.8886 669.391 84.7016 668.385 82.032L670.169 81.3594C671.11 83.8543 673.148 87.8671 676.177 91.6932C679.21 95.5234 683.178 99.0928 687.956 100.822L687.307 102.615C682.073 100.721 677.837 96.8612 674.682 92.877Z" fill="white"/>
<path fill-rule="evenodd" clip-rule="evenodd" d="M697.674 77.3384L683.372 66.8503L684.5 65.3125L698.802 75.8006L697.674 77.3384Z" fill="white"/>
<path fill-rule="evenodd" clip-rule="evenodd" d="M635.076 151.725L624.494 110.895L626.34 110.417L637.701 154.254L636.165 153.895C634.07 153.404 631.579 153.098 629.158 153.214C626.727 153.331 624.441 153.869 622.686 154.999C620.966 156.105 619.702 157.811 619.314 160.424C618.919 163.081 619.423 166.733 621.415 171.679L619.646 172.392C617.587 167.279 616.963 163.265 617.428 160.144C617.898 156.978 619.48 154.794 621.654 153.395C623.792 152.019 626.447 151.435 629.066 151.31C631.12 151.211 633.199 151.392 635.076 151.725Z" fill="white"/>
<path fill-rule="evenodd" clip-rule="evenodd" d="M656.067 172.679L669.297 107.962L671.165 108.344L657.936 173.061L656.067 172.679Z" fill="white"/>
<path fill-rule="evenodd" clip-rule="evenodd" d="M681.987 150.924L690.211 131.617L691.965 132.364L683.742 151.672L681.987 150.924Z" fill="white"/>
<path fill-rule="evenodd" clip-rule="evenodd" d="M699.107 170.742C694.266 153.332 681.352 150.137 676.003 151.849L675.422 150.033C681.991 147.931 695.87 151.982 700.944 170.232L699.107 170.742Z" fill="white"/>
<path fill-rule="evenodd" clip-rule="evenodd" d="M630.486 171.111C630.668 171.841 630.791 172.289 630.839 172.416L629.053 173.086C628.958 172.832 628.806 172.256 628.636 171.573C628.458 170.86 628.242 169.955 628.017 168.987C627.565 167.052 627.069 164.856 626.751 163.423L628.612 163.01C628.93 164.438 629.424 166.627 629.874 168.554C630.099 169.517 630.312 170.412 630.486 171.111Z" fill="white"/>
<path fill-rule="evenodd" clip-rule="evenodd" d="M636.378 159.545L637.689 172.536L635.791 172.727L634.48 159.736L636.378 159.545Z" fill="white"/>
<path fill-rule="evenodd" clip-rule="evenodd" d="M646.505 164.414L645.432 172.519L643.542 172.269L644.615 164.164L646.505 164.414Z" fill="white"/>
<path fill-rule="evenodd" clip-rule="evenodd" d="M686.17 161.428L688.673 171.082L686.827 171.561L684.324 161.907L686.17 161.428Z" fill="white"/>
<path fill-rule="evenodd" clip-rule="evenodd" d="M681.865 160.765L678.17 172.326L676.354 171.745L680.048 160.185L681.865 160.765Z" fill="white"/>
<path fill-rule="evenodd" clip-rule="evenodd" d="M670.693 163.499L669.144 172.438L667.265 172.112L668.814 163.173L670.693 163.499Z" fill="white"/>
<path fill-rule="evenodd" clip-rule="evenodd" d="M736.141 113.725C723.936 116.9 717.376 110.492 715.607 106.645L717.34 105.849C718.749 108.914 724.41 114.806 735.661 111.879L736.141 113.725Z" fill="white"/>
<path fill-rule="evenodd" clip-rule="evenodd" d="M718.594 145.628C716.769 143.296 716.454 140.516 716.721 138.648L718.608 138.918C718.398 140.387 718.656 142.613 720.096 144.453C721.506 146.254 724.175 147.841 729.106 147.841V149.748C723.74 149.748 720.45 147.998 718.594 145.628Z" fill="white"/>
<path d="M638.995 44.5593L645.918 34.5653C646.603 33.5772 648.02 33.4611 648.856 34.3248L657.751 43.5121C658.89 44.6888 658.114 46.6595 656.478 46.743L640.66 47.5497C639.079 47.6303 638.094 45.8607 638.995 44.5593Z" fill="white"/>
<path fill-rule="evenodd" clip-rule="evenodd" d="M638.45 100.899L640.475 96.8617L642.187 97.7202L640.162 101.757L638.45 100.899Z" fill="white"/>
<path fill-rule="evenodd" clip-rule="evenodd" d="M619.532 134.512L617.312 130.58L618.979 129.638L621.2 133.571L619.532 134.512Z" fill="white"/>
<path fill-rule="evenodd" clip-rule="evenodd" d="M658.21 139.257L655.99 135.325L657.657 134.383L659.877 138.316L658.21 139.257Z" fill="white"/>
<path fill-rule="evenodd" clip-rule="evenodd" d="M704.624 115.827L702.973 111.624L704.756 110.924L706.406 115.127L704.624 115.827Z" fill="white"/>
<path fill-rule="evenodd" clip-rule="evenodd" d="M717.241 160.056L714.759 153.736L716.941 152.879L719.423 159.199L717.241 160.056Z" fill="white"/>
<path fill-rule="evenodd" clip-rule="evenodd" d="M54.0063 240.341C51.5042 239.011 48.6104 238.344 45.5751 238.557C41.1634 238.868 37.3081 240.979 34.6772 244.123C29.3475 246.923 25.893 252.687 26.343 259.077C26.6742 263.779 29.0506 267.849 32.5417 270.478C30.4259 273.361 29.2822 276.981 29.553 280.827C29.7678 283.877 30.8428 286.66 32.5242 288.957C31.1808 291.468 30.5062 294.375 30.721 297.425C31.038 301.927 33.2298 305.849 36.4796 308.482C34.6073 311.271 33.6153 314.682 33.8696 318.292C34.2059 323.068 36.6521 327.191 40.2331 329.816C37.0553 332.596 35.1707 336.78 35.4903 341.317C36.0322 349.013 42.7105 354.813 50.4066 354.271C51.256 354.211 52.0823 354.076 52.8795 353.874C55.179 354.924 57.7663 355.43 60.4655 355.24C69.0839 354.633 75.5784 347.155 74.9715 338.536C74.6896 334.533 72.9247 330.987 70.2515 328.399C71.1198 326.258 71.5252 323.891 71.352 321.431C71.1987 319.254 70.6068 317.212 69.6688 315.386C70.3414 313.447 70.6412 311.343 70.4879 309.166C70.2709 306.084 69.1752 303.274 67.4629 300.963C68.5217 299.011 69.1752 296.817 69.3185 294.5C69.4059 294.508 69.4936 294.515 69.5814 294.522C70.5054 299.171 73.4662 303.024 77.4409 305.193C75.3778 308.057 74.2671 311.633 74.5345 315.429C74.8694 320.186 77.2976 324.295 80.8554 326.921C79.0298 329.69 78.0666 333.059 78.3175 336.622C78.9245 345.241 86.4031 351.735 95.0215 351.129C96.7217 351.009 98.3392 350.622 99.8359 350.011C101.403 350.406 103.059 350.563 104.76 350.443C106.173 350.343 107.529 350.059 108.806 349.615C109.959 349.842 111.155 349.94 112.376 349.897C114.811 351.128 117.6 351.737 120.519 351.531C129.137 350.924 135.632 343.446 135.025 334.827C134.789 331.479 133.517 328.452 131.543 326.037C134.563 322.951 136.3 318.637 135.973 313.991C135.754 310.882 134.641 308.05 132.903 305.728C133.054 305.521 133.2 305.31 133.34 305.096C136.341 302.136 138.134 297.988 137.997 293.486C138.673 290.957 138.953 288.192 138.75 285.32L138.749 285.296C139.044 285.291 139.342 285.278 139.641 285.257C140.127 285.223 140.607 285.168 141.079 285.092C141.486 285.636 141.929 286.151 142.406 286.635C140.373 289.386 139.277 292.802 139.532 296.424C139.794 300.151 141.444 303.463 143.962 305.925C141.814 308.716 140.645 312.226 140.907 315.954C140.932 316.306 140.969 316.655 141.019 317C137.683 320.004 135.724 324.372 136.056 329.088C136.306 332.639 137.815 335.813 140.134 338.234C141.433 345.795 148.515 351.28 156.622 350.709C160.372 350.445 163.724 348.929 166.266 346.616C166.386 346.602 166.506 346.587 166.626 346.571C168.863 347.508 171.365 347.951 173.973 347.767C182.592 347.16 189.105 339.94 188.52 331.639C188.286 328.31 186.945 325.313 184.867 322.956C186.594 320.331 187.501 317.176 187.267 313.847C187.034 310.544 185.712 307.567 183.662 305.219C184.259 303.44 184.522 301.526 184.383 299.551C184.012 294.283 180.87 289.845 176.421 287.462C178.326 284.76 179.343 281.45 179.097 277.947C178.878 274.844 177.698 272.029 175.856 269.752C177.362 267.239 178.136 264.286 177.917 261.182C177.526 255.624 174.052 250.992 169.212 248.72C169.207 248.626 169.202 248.532 169.195 248.438C168.611 240.138 161.15 233.902 152.532 234.509C151.933 234.551 151.344 234.625 150.766 234.729C147.89 232.699 144.275 231.607 140.429 231.878C132.201 232.458 125.893 239.064 125.846 246.883C122.491 249.804 120.467 254.081 120.662 258.729L120.656 258.73C112.038 259.337 105.525 266.557 106.11 274.857C106.265 277.064 106.906 279.124 107.926 280.949C107.564 282.812 107.412 284.781 107.5 286.81C106.299 284.037 104.325 281.699 101.867 280.044C102.02 278.966 102.063 277.855 101.983 276.724C101.553 270.623 97.6801 265.586 92.3965 263.38C90.4113 256.416 83.7658 251.551 76.2544 252.079C75.6571 252.122 75.0699 252.197 74.4945 252.303C73.0806 244.564 66.0395 238.963 58.0088 239.529C56.6118 239.627 55.2705 239.906 54.0063 240.341Z" fill="black"/>
<path fill-rule="evenodd" clip-rule="evenodd" d="M50.2478 342.416L49.2698 337.039L51.0088 336.723L51.9868 342.1L50.2478 342.416Z" fill="white"/>
<path fill-rule="evenodd" clip-rule="evenodd" d="M174.986 308.378L173.188 304.617L174.783 303.855L176.581 307.616L174.986 308.378Z" fill="white"/>
<path fill-rule="evenodd" clip-rule="evenodd" d="M148.576 330.609L150.129 326.741L151.77 327.399L150.217 331.267L148.576 330.609Z" fill="white"/>
<path d="M34.4405 321.644C28.9797 309.841 28.4947 290.81 28.9559 282.04C28.9815 281.554 29.1893 281.098 29.5336 280.754L36.3067 273.98C37.4414 272.846 39.3821 273.441 39.6807 275.018C41.5 284.622 44.1218 298.856 43.9626 299.652C43.7359 300.786 41.4688 336.834 34.4405 321.644Z" fill="black"/>
<path fill-rule="evenodd" clip-rule="evenodd" d="M44.6395 325.846C47.8144 323.192 49.8479 319.065 50.7381 316.061L51.6969 316.345C50.7733 319.462 48.6579 323.791 45.2807 326.613C43.5849 328.03 41.5603 329.075 39.2049 329.381C36.8473 329.687 34.1987 329.247 31.2666 327.758L31.7195 326.866C34.5006 328.279 36.9475 328.666 39.0761 328.389C41.2069 328.113 43.0591 327.166 44.6395 325.846Z" fill="white"/>
<path fill-rule="evenodd" clip-rule="evenodd" d="M76.4389 248.07C76.7648 251.756 78.7112 255.766 80.4265 258.339L79.5944 258.894C77.8334 256.252 75.7895 252.079 75.4428 248.158C75.2688 246.19 75.5191 244.248 76.4887 242.595C77.4644 240.932 79.1339 239.621 81.6821 238.866L81.9662 239.825C79.6174 240.521 78.1771 241.693 77.3513 243.101C76.5195 244.518 76.2766 246.234 76.4389 248.07Z" fill="white"/>
<path fill-rule="evenodd" clip-rule="evenodd" d="M505.479 234.907C502.768 233.465 499.633 232.742 496.344 232.974C491.565 233.31 487.389 235.597 484.538 239.002C478.763 242.035 475.02 248.28 475.508 255.204C475.866 260.299 478.441 264.708 482.223 267.556C479.93 270.68 478.691 274.602 478.984 278.77C479.217 282.074 480.382 285.09 482.204 287.579C480.749 290.299 480.018 293.448 480.251 296.752C480.594 301.63 482.969 305.879 486.49 308.732C484.462 311.754 483.387 315.449 483.662 319.361C484.026 324.535 486.676 329.002 490.556 331.846C487.113 334.858 485.072 339.391 485.418 344.306C486.005 352.644 493.241 358.928 501.579 358.34C502.499 358.276 503.393 358.13 504.257 357.911C506.748 359.049 509.552 359.598 512.477 359.392C521.814 358.734 528.851 350.632 528.193 341.294C527.888 336.956 525.975 333.115 523.078 330.311C524.019 327.991 524.459 325.426 524.271 322.76C524.105 320.402 523.464 318.19 522.448 316.212C523.176 314.111 523.501 311.831 523.335 309.473C523.1 306.134 521.913 303.089 520.057 300.585C521.204 298.471 521.912 296.093 522.068 293.583C522.162 293.592 522.258 293.6 522.353 293.607C523.354 298.644 526.562 302.818 530.868 305.168C528.633 308.271 527.43 312.145 527.72 316.258C528.083 321.411 530.713 325.864 534.568 328.709C532.59 331.709 531.546 335.359 531.818 339.22C532.476 348.557 540.578 355.594 549.916 354.936C551.757 354.806 553.509 354.387 555.13 353.726C556.829 354.154 558.623 354.324 560.465 354.194C561.997 354.086 563.467 353.778 564.851 353.297C566.099 353.542 567.394 353.649 568.716 353.602C571.355 354.935 574.376 355.596 577.539 355.373C586.877 354.715 593.913 346.613 593.256 337.275C593 333.648 591.621 330.368 589.483 327.751C592.756 324.408 594.637 319.734 594.282 314.7C594.045 311.332 592.84 308.264 590.957 305.747C591.12 305.523 591.278 305.294 591.431 305.062C594.681 301.856 596.624 297.363 596.476 292.485C596.483 292.46 596.489 292.435 596.496 292.41C596.73 292.403 596.965 292.391 597.2 292.374C606.538 291.717 613.594 283.894 612.96 274.901C612.664 270.693 610.737 266.975 607.813 264.276C610.401 261.175 611.835 257.168 611.534 252.898C610.901 243.905 602.818 237.148 593.48 237.806C592.918 237.845 592.365 237.911 591.82 238.001C588.713 232.712 582.636 229.335 575.907 229.809C566.569 230.467 559.513 238.29 560.146 247.283C560.501 252.315 563.188 256.647 567.123 259.372C563.62 262.62 561.575 267.278 561.929 272.301C562.097 274.692 562.792 276.924 563.896 278.901C563.505 280.92 563.34 283.052 563.435 285.25C562.134 282.247 559.995 279.713 557.332 277.921C557.498 276.752 557.544 275.549 557.458 274.324C556.992 267.713 552.795 262.256 547.07 259.865C544.919 252.321 537.719 247.05 529.581 247.623C528.935 247.669 528.299 247.75 527.677 247.865C526.144 239.481 518.516 233.414 509.816 234.026C508.302 234.133 506.849 234.435 505.479 234.907Z" fill="black"/>
<path d="M608.341 298.682C609.184 310.657 602.298 320.898 592.961 321.555C583.623 322.213 575.37 313.038 574.527 301.064C573.684 289.089 580.569 278.848 589.907 278.191C599.244 277.533 607.497 286.708 608.341 298.682Z" fill="black"/>
<path d="M606.341 329.682C607.184 341.657 600.298 351.898 590.961 352.555C581.623 353.213 573.37 344.038 572.527 332.064C571.684 320.089 578.569 309.848 587.907 309.191C597.244 308.533 605.497 317.708 606.341 329.682Z" fill="black"/>
<path fill-rule="evenodd" clip-rule="evenodd" d="M536.323 267.555L535.276 263.605L537.127 263.114L538.174 267.065L536.323 267.555Z" fill="white"/>
<path fill-rule="evenodd" clip-rule="evenodd" d="M502.658 299.714L505.219 293.252L506.999 293.957L504.438 300.42L502.658 299.714Z" fill="white"/>
<path fill-rule="evenodd" clip-rule="evenodd" d="M491.484 267.197L491.207 260.251L493.12 260.175L493.398 267.121L491.484 267.197Z" fill="white"/>
<path fill-rule="evenodd" clip-rule="evenodd" d="M550.927 341.244L550.691 335.329L552.604 335.252L552.841 341.168L550.927 341.244Z" fill="white"/>
<path fill-rule="evenodd" clip-rule="evenodd" d="M591.089 279.221L586.087 282.389L585.062 280.771L590.064 277.603L591.089 279.221Z" fill="white"/>
<path fill-rule="evenodd" clip-rule="evenodd" d="M586.112 315.415L589.488 320.279L587.915 321.371L584.539 316.507L586.112 315.415Z" fill="white"/>
<path fill-rule="evenodd" clip-rule="evenodd" d="M501.408 345.497L500.348 339.672L502.232 339.329L503.292 345.154L501.408 345.497Z" fill="white"/>
<path d="M484.281 322.992C478.351 310.176 477.837 289.492 478.343 280.019C478.369 279.533 478.576 279.079 478.92 278.735L486.526 271.13C487.66 269.995 489.601 270.587 489.899 272.163C491.872 282.569 494.772 298.295 494.598 299.166C494.352 300.394 491.896 339.449 484.281 322.992Z" fill="black"/>
<path fill-rule="evenodd" clip-rule="evenodd" d="M481.639 280.165C484.66 278.383 487.287 275.354 488.777 273.099L489.612 273.65C488.072 275.98 485.344 279.141 482.147 281.027C480.545 281.972 478.797 282.613 477.005 282.644C475.2 282.674 473.387 282.085 471.677 280.633L472.324 279.871C473.855 281.171 475.434 281.67 476.988 281.644C478.554 281.617 480.132 281.054 481.639 280.165Z" fill="white"/>
<path fill-rule="evenodd" clip-rule="evenodd" d="M529.743 243.283C530.097 247.286 532.21 251.638 534.07 254.428L533.238 254.983C531.332 252.124 529.121 247.609 528.747 243.371C528.559 241.245 528.83 239.149 529.874 237.368C530.925 235.577 532.724 234.163 535.477 233.348L535.761 234.306C533.208 235.063 531.638 236.339 530.737 237.874C529.83 239.42 529.566 241.288 529.743 243.283Z" fill="white"/>
<path fill-rule="evenodd" clip-rule="evenodd" d="M192 148.478L194.247 143L196.019 143.727L193.772 149.204L192 148.478Z" fill="white"/>
<path fill-rule="evenodd" clip-rule="evenodd" d="M143.117 132.587L139.001 128.331L140.377 127L144.493 131.255L143.117 132.587Z" fill="white"/>
<path fill-rule="evenodd" clip-rule="evenodd" d="M199.517 56.0963C200.112 61.5458 202.157 67.859 203.867 72.0123L202.942 72.393C201.214 68.1947 199.132 61.7842 198.523 56.2048C198.219 53.4203 198.276 50.7902 198.965 48.7346C199.664 46.6506 201.031 45.1262 203.311 44.6919L203.498 45.6742C201.652 46.026 200.525 47.2281 199.913 49.0527C199.292 50.9058 199.219 53.3663 199.517 56.0963Z" fill="white"/>
<path fill-rule="evenodd" clip-rule="evenodd" d="M400.164 63.4855C400.164 65.0215 399.973 66.5115 399.614 67.9314C399.938 68.3358 400.245 68.7554 400.534 69.1892C407.927 71.0907 413.404 77.9933 413.404 86.2174C413.404 87.2978 413.31 88.3554 413.129 89.3819C418.943 92.0797 422.976 97.9696 422.976 104.801C422.976 110.697 419.973 115.891 415.413 118.937C415.456 119.431 415.478 119.93 415.478 120.434L415.478 120.525L415.477 120.596C419.459 123.705 422.019 128.551 422.019 133.994C422.019 143.377 414.412 150.983 405.029 150.983C404.839 150.983 404.649 150.98 404.46 150.974C403.869 153.198 402.837 155.244 401.464 157.011C401.501 157.469 401.52 157.933 401.52 158.401C401.52 167.784 393.914 175.39 384.531 175.39C384.02 175.39 383.515 175.367 383.015 175.323C382.599 175.36 382.179 175.382 381.755 175.388C378.666 178.586 374.333 180.574 369.536 180.574C366.139 180.574 362.974 179.577 360.32 177.86C359.358 178.05 358.368 178.158 357.356 178.178C354.256 182.298 349.325 184.961 343.773 184.961C335.114 184.961 327.969 178.484 326.917 170.111C326.415 169.299 325.98 168.441 325.619 167.546C318.064 165.821 312.427 159.061 312.427 150.983L312.427 150.842C309.972 148.407 308.257 145.228 307.647 141.671C302.808 138.677 299.585 133.322 299.585 127.214C299.585 121.179 302.732 115.878 307.475 112.865C307.627 111.218 308.015 109.639 308.604 108.162C305.638 105.003 303.812 100.696 303.812 95.9478C303.812 89.7255 306.948 84.2596 311.676 81.1439C311.54 80.2499 311.469 79.3336 311.469 78.4002C311.469 70.0806 317.075 63.1134 324.598 61.3078C327.293 55.2942 333.187 51.1225 340.024 51.1225C343.714 51.1225 347.129 52.3373 349.914 54.4009C352.7 52.3373 356.115 51.1225 359.805 51.1225C363.173 51.1225 366.313 52.1351 368.954 53.8816C371.988 49.0978 377.224 45.938 383.175 45.938C392.558 45.938 400.164 53.7943 400.164 63.4855ZM378.415 107.746C375.673 104.63 374.002 100.49 374.002 95.9478C374.002 94.4308 374.189 92.9588 374.539 91.5549C373.699 90.6907 372.945 89.7362 372.294 88.7067C369.514 90.7552 366.112 91.9602 362.437 91.9602C359.415 91.9602 356.577 91.1452 354.118 89.7164C352.24 92.593 349.557 94.8635 346.403 96.184C346.337 101.38 344.084 106.031 340.552 109.2C341.089 110.854 341.38 112.619 341.38 114.452C341.38 115.883 341.203 117.272 340.87 118.6C341.203 119.927 341.38 121.317 341.38 122.748C341.38 124.52 341.108 126.229 340.605 127.835C342.012 130.31 342.816 133.172 342.816 136.222C342.816 137.526 342.669 138.795 342.391 140.015C343.549 141.384 344.495 142.939 345.177 144.629C345.442 144.69 345.706 144.757 345.966 144.83C347.425 144.421 348.963 144.203 350.552 144.203C351.657 144.203 352.737 144.309 353.783 144.51C354.829 144.309 355.909 144.203 357.013 144.203C359.172 144.203 361.237 144.606 363.136 145.34C365.553 143.328 368.537 141.973 371.813 141.551C373.613 135.753 378.436 131.285 384.439 129.989C382.584 127.267 381.5 123.977 381.5 120.434C381.5 117.766 382.115 115.24 383.212 112.993C381.284 111.607 379.647 109.819 378.415 107.746Z" fill="black"/>
<path fill-rule="evenodd" clip-rule="evenodd" d="M321.112 107.793L323.361 103.877L325.021 104.831L322.772 108.747L321.112 107.793Z" fill="white"/>
<path fill-rule="evenodd" clip-rule="evenodd" d="M401.577 139.76L404.466 136.289L405.938 137.514L403.048 140.985L401.577 139.76Z" fill="white"/>
<path fill-rule="evenodd" clip-rule="evenodd" d="M388.962 94.4018L388.639 89.8974L390.549 89.7603L390.872 94.2647L388.962 94.4018Z" fill="white"/>
<path fill-rule="evenodd" clip-rule="evenodd" d="M395.286 164.469C391.658 159.584 390.749 153.438 391.004 149.27L392.965 149.39C392.729 153.245 393.589 158.889 396.863 163.297C400.084 167.634 405.748 170.92 415.47 169.967L415.661 171.923C405.339 172.935 398.967 169.426 395.286 164.469Z" fill="white"/>
<path fill-rule="evenodd" clip-rule="evenodd" d="M316.381 64.1718C320.989 67.498 326.578 69.7892 330.308 70.8719L329.76 72.7591C325.875 71.6311 320.066 69.2553 315.231 65.7652C310.429 62.2996 306.346 57.5542 306.453 51.6558L308.418 51.6915C308.329 56.6009 311.738 60.8211 316.381 64.1718Z" fill="white"/>
<path fill-rule="evenodd" clip-rule="evenodd" d="M449.872 164.37C449.952 162.836 450.221 161.358 450.653 159.959C450.35 159.538 450.065 159.103 449.799 158.655C442.516 156.371 437.405 149.193 437.833 140.98C437.889 139.901 438.039 138.849 438.273 137.834C432.607 134.837 428.887 128.745 429.242 121.923C429.549 116.035 432.819 111.004 437.531 108.199C437.513 107.705 437.517 107.205 437.544 106.701L437.549 106.61L437.553 106.54C433.739 103.227 431.435 98.2552 431.718 92.8195C432.206 83.4493 440.198 76.2493 449.569 76.7378C449.759 76.7477 449.948 76.7607 450.137 76.7768C450.843 74.5859 451.98 72.597 453.443 70.9038C453.43 70.4441 453.435 69.9802 453.46 69.5129C453.948 60.1427 461.94 52.9427 471.31 53.4312C471.82 53.4578 472.324 53.5066 472.82 53.5767C473.237 53.5616 473.658 53.5617 474.081 53.5776C477.333 50.5449 481.764 48.7847 486.555 49.0344C489.947 49.2113 493.055 50.3717 495.617 52.2249C496.587 52.0856 497.581 52.0288 498.593 52.0615C501.904 48.1091 506.966 45.7056 512.511 45.9946C521.158 46.4454 527.957 53.2859 528.571 61.7027C529.03 62.5396 529.42 63.4184 529.734 64.3312C537.189 66.4469 542.466 73.4921 542.046 81.5587L542.038 81.6994C544.363 84.2588 545.911 87.5229 546.335 91.1067C551.01 94.3486 553.951 99.8643 553.633 105.964C553.318 111.991 549.9 117.12 545.007 119.883C544.768 121.52 544.299 123.076 543.634 124.52C546.432 127.829 548.031 132.226 547.783 136.968C547.459 143.182 544.044 148.477 539.16 151.342C539.249 152.242 539.272 153.161 539.223 154.093C538.79 162.401 532.829 169.067 525.222 170.479C522.218 176.344 516.115 180.203 509.287 179.847C505.602 179.655 502.255 178.264 499.581 176.058C496.691 177.974 493.218 179.009 489.533 178.817C486.169 178.642 483.087 177.467 480.54 175.586C477.261 180.205 471.867 183.088 465.925 182.778C456.555 182.29 449.368 174.048 449.872 164.37ZM473.896 121.302C476.472 124.557 477.925 128.777 477.689 133.314C477.61 134.829 477.347 136.289 476.924 137.673C477.718 138.58 478.421 139.572 479.018 140.634C481.9 138.733 485.361 137.707 489.031 137.898C492.049 138.055 494.84 139.017 497.221 140.572C499.247 137.797 502.044 135.669 505.262 134.515C505.599 129.329 508.091 124.802 511.783 121.821C511.333 120.141 511.135 118.363 511.23 116.533C511.305 115.104 511.553 113.725 511.955 112.417C511.692 111.074 511.587 109.677 511.662 108.249C511.754 106.479 512.114 104.786 512.701 103.208C511.424 100.664 510.771 97.7637 510.93 94.7179C510.997 93.4157 511.21 92.1555 511.551 90.952C510.466 89.5243 509.602 87.9221 509.009 86.199C508.747 86.1246 508.488 86.0442 508.231 85.9578C506.753 86.2894 505.206 86.4272 503.619 86.3445C502.516 86.287 501.443 86.1255 500.409 85.87C499.354 86.0166 498.27 86.0657 497.167 86.0082C495.011 85.8958 492.97 85.3862 491.111 84.554C488.593 86.4381 485.543 87.6355 482.249 87.8859C480.149 93.5828 475.1 97.7937 469.038 98.775C470.749 101.59 471.66 104.932 471.476 108.47C471.337 111.135 470.591 113.625 469.379 115.812C471.232 117.297 472.774 119.168 473.896 121.302Z" fill="black"/>
<path fill-rule="evenodd" clip-rule="evenodd" d="M467.571 74.3902L469.545 70.3287L471.268 71.166L469.293 75.2275L467.571 74.3902Z" fill="white"/>
<path fill-rule="evenodd" clip-rule="evenodd" d="M457.148 161.823L460.269 158.559L461.653 159.883L458.532 163.147L457.148 161.823Z" fill="white"/>
<path fill-rule="evenodd" clip-rule="evenodd" d="M505.194 64.3842L500.755 65.2162L500.402 63.334L504.841 62.502L505.194 64.3842Z" fill="white"/>
<path fill-rule="evenodd" clip-rule="evenodd" d="M466.498 112.493C463.622 110.529 461.391 107.273 460.204 104.9L461.962 104.021C463.068 106.233 465.11 109.166 467.606 110.871C468.842 111.715 470.138 112.223 471.454 112.247C472.752 112.271 474.173 111.827 475.688 110.58L476.937 112.097C475.11 113.601 473.244 114.245 471.418 114.212C469.611 114.179 467.947 113.483 466.498 112.493Z" fill="white"/>
<path fill-rule="evenodd" clip-rule="evenodd" d="M348.694 344.499C348.774 342.965 349.043 341.487 349.475 340.087C349.172 339.667 348.888 339.232 348.622 338.783C341.338 336.5 336.227 329.321 336.656 321.108C336.712 320.029 336.861 318.978 337.095 317.962C331.429 314.966 327.709 308.874 328.065 302.051C328.372 296.164 331.641 291.133 336.353 288.328C336.336 287.833 336.34 287.333 336.366 286.83L336.371 286.739L336.375 286.668C332.561 283.356 330.257 278.384 330.54 272.948C331.029 263.578 339.021 256.378 348.391 256.866C348.581 256.876 348.77 256.889 348.959 256.905C349.665 254.715 350.802 252.726 352.265 251.033C352.252 250.573 352.257 250.109 352.282 249.642C352.77 240.271 360.762 233.071 370.132 233.56C370.642 233.586 371.146 233.635 371.642 233.705C372.059 233.69 372.48 233.69 372.904 233.706C376.155 230.674 380.586 228.913 385.377 229.163C388.77 229.34 391.877 230.5 394.439 232.354C395.409 232.214 396.404 232.157 397.415 232.19C400.726 228.238 405.788 225.834 411.333 226.123C419.98 226.574 426.779 233.415 427.393 241.831C427.852 242.668 428.242 243.547 428.556 244.46C436.011 246.576 441.289 253.621 440.868 261.687L440.86 261.828C443.185 264.387 444.733 267.652 445.157 271.235C449.833 274.477 452.773 279.993 452.455 286.093C452.141 292.12 448.722 297.249 443.829 300.012C443.591 301.649 443.121 303.205 442.456 304.649C445.254 307.958 446.853 312.355 446.606 317.097C446.282 323.31 442.866 328.606 437.982 331.471C438.071 332.371 438.094 333.29 438.045 334.222C437.612 342.53 431.651 349.196 424.045 350.607C421.041 356.473 414.937 360.332 408.109 359.976C404.425 359.784 401.078 358.393 398.403 356.187C395.514 358.103 392.04 359.138 388.355 358.946C384.991 358.771 381.909 357.596 379.362 355.714C376.083 360.334 370.69 363.217 364.747 362.907C355.377 362.418 348.19 354.177 348.694 344.499ZM372.718 301.431C375.294 304.685 376.747 308.906 376.511 313.442C376.432 314.957 376.169 316.418 375.746 317.801C376.54 318.708 377.243 319.701 377.84 320.763C380.723 318.862 384.183 317.835 387.853 318.027C390.871 318.184 393.662 319.146 396.043 320.7C398.069 317.926 400.866 315.798 404.084 314.643C404.421 309.458 406.913 304.931 410.605 301.95C410.155 300.27 409.957 298.492 410.052 296.661C410.127 295.232 410.376 293.854 410.777 292.546C410.514 291.203 410.41 289.806 410.484 288.377C410.576 286.607 410.936 284.915 411.523 283.337C410.247 280.792 409.593 277.892 409.752 274.847C409.82 273.544 410.032 272.284 410.374 271.081C409.288 269.653 408.424 268.051 407.831 266.328C407.569 266.253 407.31 266.173 407.054 266.087C405.575 266.418 404.028 266.556 402.441 266.473C401.338 266.416 400.265 266.254 399.231 265.999C398.176 266.145 397.092 266.194 395.989 266.137C393.833 266.024 391.792 265.515 389.933 264.683C387.415 266.567 384.365 267.764 381.072 268.015C378.972 273.712 373.923 277.922 367.86 278.904C369.571 281.719 370.483 285.061 370.298 288.599C370.159 291.264 369.413 293.754 368.201 295.941C370.054 297.425 371.596 299.296 372.718 301.431Z" fill="black"/>
<path fill-rule="evenodd" clip-rule="evenodd" d="M366.392 254.518L368.367 250.457L370.089 251.294L368.114 255.355L366.392 254.518Z" fill="white"/>
<path fill-rule="evenodd" clip-rule="evenodd" d="M355.97 341.952L359.091 338.688L360.475 340.011L357.354 343.276L355.97 341.952Z" fill="white"/>
<path fill-rule="evenodd" clip-rule="evenodd" d="M404.014 244.513L399.575 245.345L399.223 243.463L403.661 242.631L404.014 244.513Z" fill="white"/>
<path fill-rule="evenodd" clip-rule="evenodd" d="M351.253 248.284C354.229 248.269 357.248 246.942 359.114 245.698L360.204 247.333C358.139 248.71 354.747 250.232 351.263 250.249C349.504 250.258 347.698 249.883 346.04 248.887C344.378 247.889 342.926 246.303 341.823 243.991L343.597 243.145C344.557 245.157 345.764 246.428 347.052 247.203C348.345 247.979 349.782 248.292 351.253 248.284ZM416.579 355.315C415.093 346.4 417.372 335.385 419.891 327.995L421.751 328.628C419.275 335.894 417.109 346.544 418.517 354.991C419.219 359.201 420.79 362.754 423.535 365.108C426.262 367.446 430.294 368.728 436.194 368.109L436.398 370.064C430.115 370.722 425.497 369.378 422.256 366.6C419.036 363.839 417.324 359.786 416.579 355.315Z" fill="white"/>
<path fill-rule="evenodd" clip-rule="evenodd" d="M254.291 229.787C256.609 228.578 259.263 227.891 262.085 227.891C265.068 227.891 267.866 228.659 270.275 230.001C272.684 228.659 275.482 227.891 278.465 227.891C284.27 227.891 289.369 230.798 292.279 235.182C301.055 235.48 308.074 242.424 308.074 250.947C308.074 257.748 303.605 263.544 297.341 265.76C295.202 272.076 289.036 276.64 281.763 276.64C276.587 276.64 271.973 274.329 268.97 270.72C265.525 270.297 262.415 268.843 259.982 266.69C259.634 266.712 259.283 266.722 258.93 266.722C256.218 266.722 253.659 266.088 251.406 264.964C250.037 265.647 248.555 266.149 246.994 266.438C246.085 266.987 245.115 267.453 244.098 267.824C245.877 270.347 246.916 273.393 246.916 276.673C246.916 278.351 246.644 279.967 246.14 281.484C246.749 281.565 247.347 281.678 247.933 281.822C249.991 280.925 252.275 280.425 254.681 280.425C257.776 280.425 260.67 281.251 263.138 282.687C265.777 280.937 268.973 279.913 272.419 279.913C275.714 279.913 278.783 280.85 281.352 282.463C283.235 281.736 285.292 281.336 287.445 281.336C296.492 281.336 303.827 288.398 303.827 297.111C303.827 303.033 300.438 308.193 295.426 310.89C292.458 314.093 288.154 316.122 283.357 316.166C281.309 317.053 279.037 317.547 276.645 317.547C274.897 317.547 273.213 317.283 271.634 316.795C269.192 318.188 266.341 318.988 263.297 318.988C260.136 318.988 257.183 318.125 254.68 316.631C254.657 317.726 254.519 318.794 254.277 319.823C256.85 320.666 259.136 322.108 260.955 323.977C263.187 322.88 265.715 322.261 268.394 322.261C272.5 322.261 276.253 323.716 279.128 326.119C280.888 325.496 282.791 325.156 284.776 325.156C287.043 325.156 289.202 325.6 291.166 326.402C291.341 326.396 291.516 326.394 291.692 326.394C300.74 326.394 308.074 333.456 308.074 342.169C308.074 350.881 300.74 357.944 291.692 357.944C289.946 357.944 288.264 357.68 286.685 357.193C283.688 360.899 279.01 363.282 273.754 363.282C269.854 363.282 266.271 361.969 263.458 359.777C261.23 360.869 258.709 361.485 256.037 361.485C251.829 361.485 247.992 359.957 245.09 357.446C243.78 357.771 242.407 357.944 240.991 357.944C235.721 357.944 231.031 355.547 228.035 351.823C226.145 352.556 224.08 352.959 221.918 352.959C212.871 352.959 205.536 345.897 205.536 337.184C205.536 334.054 206.484 331.136 208.117 328.682C206.484 326.229 205.536 323.311 205.536 320.181C205.536 316.06 207.177 312.309 209.863 309.499C209.81 308.982 209.782 308.456 209.782 307.925C209.782 305.339 210.429 302.898 211.574 300.744C206.196 298.157 202.503 292.805 202.503 286.623C202.503 281.151 205.396 276.33 209.789 273.5C209.785 273.345 209.782 273.189 209.782 273.033C209.782 270.152 210.584 267.451 211.985 265.127C209.638 262.397 208.228 258.893 208.228 255.073C208.228 249.108 211.666 243.916 216.738 241.235C218.536 234.403 224.964 229.348 232.618 229.348C235.903 229.348 238.962 230.279 241.526 231.882C244.09 230.279 247.149 229.348 250.434 229.348C251.763 229.348 253.054 229.5 254.291 229.787Z" fill="black"/>
<path fill-rule="evenodd" clip-rule="evenodd" d="M266.636 310.632L263.882 305.856L265.427 304.965L268.181 309.742L266.636 310.632Z" fill="white"/>
<path fill-rule="evenodd" clip-rule="evenodd" d="M228.476 341.774L230.568 336.673L232.218 337.35L230.126 342.451L228.476 341.774Z" fill="white"/>
<path fill-rule="evenodd" clip-rule="evenodd" d="M229.53 255.37L225.697 251.407L226.979 250.167L230.812 254.131L229.53 255.37Z" fill="white"/>
<path fill-rule="evenodd" clip-rule="evenodd" d="M209.39 301.271C211.998 297.542 213.002 292.57 213.115 289.12L214.114 289.153C213.998 292.718 212.966 297.902 210.21 301.844C208.826 303.823 206.999 305.5 204.626 306.489C202.25 307.478 199.365 307.761 195.895 307.011L196.106 306.033C199.407 306.747 202.081 306.465 204.241 305.566C206.404 304.665 208.092 303.128 209.39 301.271Z" fill="white"/>
<path fill-rule="evenodd" clip-rule="evenodd" d="M246.523 267.305C246.158 264.783 247.037 261.819 247.931 259.876L248.839 260.294C247.979 262.164 247.188 264.919 247.513 267.162C247.673 268.27 248.1 269.217 248.888 269.892C249.677 270.567 250.891 271.023 252.731 271.023V272.023C250.729 272.023 249.258 271.525 248.238 270.652C247.217 269.778 246.708 268.581 246.523 267.305Z" fill="white"/>
<path fill-rule="evenodd" clip-rule="evenodd" d="M281.24 230.808C277.693 234.723 276.176 239.994 275.878 243.655L274.881 243.574C275.192 239.762 276.764 234.259 280.499 230.137C284.263 225.982 290.182 223.281 299.039 225.052L298.843 226.033C290.315 224.327 284.757 226.926 281.24 230.808Z" fill="white"/>
</svg>
